<?xml version="1.0" encoding="UTF-8" standalone="no"?>
<!-- Created with Inkscape (http://www.inkscape.org/) -->

<svg
   xmlns:dc="http://purl.org/dc/elements/1.1/"
   xmlns:cc="http://creativecommons.org/ns#"
   xmlns:rdf="http://www.w3.org/1999/02/22-rdf-syntax-ns#"
   xmlns:svg="http://www.w3.org/2000/svg"
   xmlns="http://www.w3.org/2000/svg"
   xmlns:sodipodi="http://sodipodi.sourceforge.net/DTD/sodipodi-0.dtd"
   xmlns:inkscape="http://www.inkscape.org/namespaces/inkscape"
   width="44.450001"
   height="44.450001"
   id="svg7802"
   version="1.1"
   inkscape:version="0.48.4 r9939"
   sodipodi:docname="Nuevo documento 77">
  <defs
     id="defs7804" />
  <sodipodi:namedview
     id="base"
     pagecolor="#ffffff"
     bordercolor="#666666"
     borderopacity="1.0"
     inkscape:pageopacity="0.0"
     inkscape:pageshadow="2"
     inkscape:zoom="0.98994949"
     inkscape:cx="17.545068"
     inkscape:cy="83.5707"
     inkscape:document-units="px"
     inkscape:current-layer="layer1"
     showgrid="false"
     fit-margin-top="0"
     fit-margin-left="0"
     fit-margin-right="0"
     fit-margin-bottom="0"
     inkscape:window-width="503"
     inkscape:window-height="421"
     inkscape:window-x="48"
     inkscape:window-y="48"
     inkscape:window-maximized="0" />
  <metadata
     id="metadata7807">
    <rdf:RDF>
      <cc:Work
         rdf:about="">
        <dc:format>image/svg+xml</dc:format>
        <dc:type
           rdf:resource="http://purl.org/dc/dcmitype/StillImage" />
        <dc:title></dc:title>
      </cc:Work>
    </rdf:RDF>
  </metadata>
  <g
     inkscape:label="Capa 1"
     inkscape:groupmode="layer"
     id="layer1"
     transform="translate(-312.06071,-510.13718)">
    <path
       d="m 334.29071,510.13718 c -12.28,0 -22.23,9.95 -22.23,22.23 0,12.27 9.95,22.22 22.23,22.22 12.27,0 22.22,-9.95 22.22,-22.22 0,-12.28 -9.95,-22.23 -22.22,-22.23 l 0,0 z m -17.78,22.23 c 0,-9.81 7.97,-17.78 17.78,-17.78 4.1,0 7.87,1.41 10.88,3.75 l -24.91,24.91 c -2.34,-3.01 -3.75,-6.78 -3.75,-10.88 l 0,0 z m 17.78,17.77 c -4.11,0 -7.88,-1.41 -10.89,-3.75 l 24.91,-24.91 c 2.34,3.01 3.75,6.78 3.75,10.89 0,9.8 -7.97,17.77 -17.77,17.77 l 0,0 z m 0,0"
       id="path36"
       inkscape:connector-curvature="0"
       style="fill:#000000;fill-rule:evenodd" />
  </g>
</svg>
