<?xml version="1.0" encoding="iso-8859-1"?>
<!-- Generator: Adobe Illustrator 16.0.0, SVG Export Plug-In . SVG Version: 6.00 Build 0)  -->
<!DOCTYPE svg PUBLIC "-//W3C//DTD SVG 1.1//EN" "http://www.w3.org/Graphics/SVG/1.1/DTD/svg11.dtd">
<svg version="1.1" id="Capa_1" xmlns="http://www.w3.org/2000/svg" xmlns:xlink="http://www.w3.org/1999/xlink" x="0px" y="0px"
	 width="298.314px" height="298.313px" viewBox="0 0 298.314 298.313" style="enable-background:new 0 0 298.314 298.313;"
	 xml:space="preserve">
<g>
	<g id="_x32_22._Calender">
		<g>
			<path d="M172.708,156.999L172.708,156.999c-8.681,0-15.701,7.029-15.701,15.709c0,8.664,7.037,15.701,15.701,15.701l0,0
				c8.664,0,15.701-7.037,15.701-15.701C188.41,164.028,181.388,156.999,172.708,156.999z M125.605,141.306
				c8.668,0,15.701-7.033,15.701-15.701c0-8.674-7.033-15.699-15.701-15.699c-8.666,0-15.699,7.025-15.699,15.699
				C109.906,134.273,116.939,141.306,125.605,141.306z M172.708,109.906L172.708,109.906c-8.681,0-15.701,7.025-15.701,15.699
				c0,8.668,7.021,15.701,15.701,15.701l0,0c8.664,0,15.701-7.033,15.701-15.701C188.41,116.931,181.388,109.906,172.708,109.906z
				 M188.41,31.4h-78.504v31.402h78.504V31.4z M219.812,141.306c8.66,0,15.701-7.033,15.701-15.701
				c0-8.674-7.025-15.699-15.701-15.699c-8.681,0-15.701,7.025-15.701,15.699C204.111,134.273,211.148,141.306,219.812,141.306z
				 M219.812,188.409c8.66,0,15.701-7.037,15.701-15.701c0-8.68-7.025-15.701-15.701-15.701c-8.681,0-15.701,7.021-15.701,15.701
				C204.111,181.372,211.148,188.409,219.812,188.409z M125.605,188.409c8.668,0,15.701-7.037,15.701-15.701
				c0-8.68-7.025-15.709-15.701-15.709c-8.674,0-15.699,7.029-15.699,15.709C109.906,181.372,116.939,188.409,125.605,188.409z
				 M78.504,235.513c8.666,0,15.701-7.041,15.701-15.701c0-8.68-7.035-15.701-15.701-15.701c-8.674,0-15.701,7.021-15.701,15.701
				C62.803,228.472,69.837,235.513,78.504,235.513z M266.911,31.4h-15.696v31.402h15.696v204.108H31.402V62.803h15.699V31.4H31.402
				C14.06,31.4,0,45.455,0,62.803v204.101c0,17.352,14.06,31.41,31.402,31.41h235.508c17.345,0,31.402-14.059,31.402-31.41V62.803
				C298.313,45.455,284.255,31.4,266.911,31.4z M78.504,188.409c8.666,0,15.701-7.037,15.701-15.701
				c0-8.68-7.035-15.709-15.701-15.709c-8.674,0-15.701,7.029-15.701,15.709C62.803,181.372,69.837,188.409,78.504,188.409z
				 M78.504,141.306c8.666,0,15.701-7.033,15.701-15.701c0-8.674-7.035-15.699-15.701-15.699c-8.674,0-15.701,7.025-15.701,15.699
				C62.803,134.273,69.837,141.306,78.504,141.306z M125.605,235.513c8.668,0,15.701-7.041,15.701-15.701
				c0-8.68-7.033-15.701-15.701-15.701c-8.666,0-15.699,7.021-15.699,15.701C109.906,228.472,116.939,235.513,125.605,235.513z
				 M78.504,62.803c8.666,0,15.701-7.033,15.701-15.701v-31.4C94.205,7.025,87.178,0,78.504,0c-8.667,0-15.701,7.025-15.701,15.701
				v31.4C62.803,55.77,69.837,62.803,78.504,62.803z M219.812,62.803c8.66,0,15.701-7.033,15.701-15.701v-31.4
				C235.513,7.025,228.472,0,219.812,0c-8.681,0-15.701,7.025-15.701,15.701v31.4C204.111,55.77,211.148,62.803,219.812,62.803z"/>
		</g>
	</g>
</g>
<g>
</g>
<g>
</g>
<g>
</g>
<g>
</g>
<g>
</g>
<g>
</g>
<g>
</g>
<g>
</g>
<g>
</g>
<g>
</g>
<g>
</g>
<g>
</g>
<g>
</g>
<g>
</g>
<g>
</g>
</svg>
