<?xml version="1.0" encoding="UTF-8" standalone="no"?>
<!-- Created with Inkscape (http://www.inkscape.org/) -->

<svg
   xmlns:dc="http://purl.org/dc/elements/1.1/"
   xmlns:cc="http://creativecommons.org/ns#"
   xmlns:rdf="http://www.w3.org/1999/02/22-rdf-syntax-ns#"
   xmlns:svg="http://www.w3.org/2000/svg"
   xmlns="http://www.w3.org/2000/svg"
   xmlns:sodipodi="http://sodipodi.sourceforge.net/DTD/sodipodi-0.dtd"
   xmlns:inkscape="http://www.inkscape.org/namespaces/inkscape"
   width="26.879999"
   height="40"
   id="svg7147"
   version="1.1"
   inkscape:version="0.48.4 r9939"
   sodipodi:docname="Nuevo documento 42">
  <defs
     id="defs7149" />
  <sodipodi:namedview
     id="base"
     pagecolor="#ffffff"
     bordercolor="#666666"
     borderopacity="1.0"
     inkscape:pageopacity="0.0"
     inkscape:pageshadow="2"
     inkscape:zoom="0.35"
     inkscape:cx="-136.56"
     inkscape:cy="45.714287"
     inkscape:document-units="px"
     inkscape:current-layer="layer1"
     showgrid="false"
     fit-margin-top="0"
     fit-margin-left="0"
     fit-margin-right="0"
     fit-margin-bottom="0"
     inkscape:window-width="503"
     inkscape:window-height="421"
     inkscape:window-x="73"
     inkscape:window-y="74"
     inkscape:window-maximized="0" />
  <metadata
     id="metadata7152">
    <rdf:RDF>
      <cc:Work
         rdf:about="">
        <dc:format>image/svg+xml</dc:format>
        <dc:type
           rdf:resource="http://purl.org/dc/dcmitype/StillImage" />
        <dc:title></dc:title>
      </cc:Work>
    </rdf:RDF>
  </metadata>
  <g
     inkscape:label="Capa 1"
     inkscape:groupmode="layer"
     id="layer1"
     transform="translate(-486.56,-538.07647)">
    <path
       d="m 500,538.07647 c -7.41,0 -13.44,6.03 -13.44,13.44 0,6.56 4.75,12.04 10.96,13.21 l 0,4.06 -3.52,0 c -1.25,0 -2.25,1.01 -2.25,2.25 0,1.25 1,2.26 2.25,2.26 l 3.52,0 0,2.53 c 0,1.24 1.01,2.25 2.26,2.25 1.24,0 2.25,-1.01 2.25,-2.25 l 0,-2.53 3.7,0 c 1.25,0 2.26,-1.02 2.26,-2.26 0,-1.24 -1.01,-2.25 -2.26,-2.25 l -3.7,0 0,-3.99 c 6.47,-0.98 11.41,-6.56 11.41,-13.28 0,-7.41 -6.02,-13.44 -13.44,-13.44 l 0,0 z m 0,22.37 c -4.92,0 -8.93,-4.01 -8.93,-8.94 0,-4.92 4.01,-8.93 8.93,-8.93 4.93,0 8.94,4.01 8.94,8.93 0,4.93 -4.01,8.94 -8.94,8.94 l 0,0 z m 0,0"
       id="path436"
       inkscape:connector-curvature="0"
       style="fill:#000000;fill-rule:evenodd" />
  </g>
</svg>
