<?xml version="1.0" encoding="UTF-8" standalone="no"?>
<!-- Created with Inkscape (http://www.inkscape.org/) -->

<svg
   xmlns:dc="http://purl.org/dc/elements/1.1/"
   xmlns:cc="http://creativecommons.org/ns#"
   xmlns:rdf="http://www.w3.org/1999/02/22-rdf-syntax-ns#"
   xmlns:svg="http://www.w3.org/2000/svg"
   xmlns="http://www.w3.org/2000/svg"
   xmlns:sodipodi="http://sodipodi.sourceforge.net/DTD/sodipodi-0.dtd"
   xmlns:inkscape="http://www.inkscape.org/namespaces/inkscape"
   width="94.209999"
   height="95.099998"
   id="svg3682"
   version="1.1"
   inkscape:version="0.48.4 r9939"
   sodipodi:docname="google-plus.svg">
  <defs
     id="defs3684" />
  <sodipodi:namedview
     id="base"
     pagecolor="#ffffff"
     bordercolor="#666666"
     borderopacity="1.0"
     inkscape:pageopacity="0.0"
     inkscape:pageshadow="2"
     inkscape:zoom="1.979899"
     inkscape:cx="94.451096"
     inkscape:cy="37.663065"
     inkscape:document-units="px"
     inkscape:current-layer="layer1"
     showgrid="false"
     inkscape:window-width="503"
     inkscape:window-height="421"
     inkscape:window-x="819"
     inkscape:window-y="75"
     inkscape:window-maximized="0"
     borderlayer="true"
     fit-margin-top="0"
     fit-margin-left="0"
     fit-margin-right="0"
     fit-margin-bottom="0" />
  <metadata
     id="metadata3687">
    <rdf:RDF>
      <cc:Work
         rdf:about="">
        <dc:format>image/svg+xml</dc:format>
        <dc:type
           rdf:resource="http://purl.org/dc/dcmitype/StillImage" />
        <dc:title></dc:title>
      </cc:Work>
    </rdf:RDF>
  </metadata>
  <g
     inkscape:label="Capa 1"
     inkscape:groupmode="layer"
     id="layer1"
     transform="translate(-341.46643,-670.52647)">
    <path
       style="fill:#000000;fill-rule:evenodd"
       inkscape:connector-curvature="0"
       d="m 388.11643,694.67647 c 0.41,0.26 0.87,0.64 1.38,1.14 0.5,0.53 0.98,1.17 1.46,1.93 0.45,0.72 0.85,1.57 1.2,2.55 0.29,0.98 0.43,2.12 0.43,3.42 -0.04,2.4 -0.55,4.31 -1.55,5.75 -0.49,0.69 -1.01,1.34 -1.55,1.92 -0.61,0.59 -1.25,1.19 -1.94,1.8 -0.39,0.41 -0.75,0.88 -1.08,1.4 -0.39,0.55 -0.59,1.18 -0.59,1.89 0,0.7 0.2,1.28 0.6,1.74 0.34,0.43 0.67,0.81 1,1.14 l 2.22,1.86 c 1.38,1.15 2.6,2.42 3.64,3.82 0.98,1.41 1.49,3.26 1.53,5.55 0,3.24 -1.4,6.11 -4.21,8.61 -2.91,2.59 -7.11,3.93 -12.59,4.02 -4.6,-0.05 -8.03,-1.05 -10.29,-3 -2.29,-1.82 -3.43,-4.01 -3.43,-6.55 0,-1.24 0.37,-2.62 1.11,-4.14 0.73,-1.52 2.03,-2.85 3.92,-4 2.13,-1.24 4.36,-2.07 6.7,-2.48 2.31,-0.35 4.23,-0.54 5.76,-0.59 -0.47,-0.63 -0.89,-1.31 -1.26,-2.03 -0.43,-0.7 -0.65,-1.54 -0.65,-2.53 0,-0.59 0.08,-1.08 0.25,-1.47 0.14,-0.42 0.28,-0.8 0.4,-1.15 -0.75,0.09 -1.45,0.13 -2.11,0.13 -3.49,-0.04 -6.15,-1.17 -7.98,-3.36 -1.91,-2.05 -2.87,-4.43 -2.87,-7.15 0,-3.29 1.35,-6.27 4.07,-8.94 1.86,-1.57 3.8,-2.59 5.81,-3.07 1.99,-0.41 3.85,-0.62 5.59,-0.62 l 13.12,0 -4.05,2.41 -4.04,0 0,0 z m 2.53,38.52 c 0,-1.7 -0.55,-3.18 -1.63,-4.44 -1.15,-1.2 -2.95,-2.66 -5.39,-4.41 -0.41,-0.04 -0.91,-0.06 -1.47,-0.06 -0.33,-0.04 -1.19,0 -2.57,0.13 -1.36,0.2 -2.74,0.51 -4.16,0.95 -0.34,0.13 -0.81,0.32 -1.41,0.58 -0.61,0.29 -1.22,0.69 -1.85,1.21 -0.61,0.55 -1.12,1.22 -1.54,2.03 -0.48,0.84 -0.72,1.87 -0.72,3.06 0,2.35 1.05,4.29 3.14,5.81 1.98,1.53 4.69,2.31 8.14,2.36 3.09,-0.05 5.45,-0.74 7.08,-2.09 1.58,-1.33 2.38,-3.04 2.38,-5.13 l 0,0 z m -9.15,-19.61 c 1.73,-0.07 3.17,-0.7 4.32,-1.9 0.55,-0.85 0.91,-1.72 1.07,-2.62 0.1,-0.89 0.14,-1.64 0.14,-2.25 0,-2.64 -0.66,-5.3 -1.98,-7.98 -0.62,-1.29 -1.44,-2.34 -2.45,-3.14 -1.03,-0.77 -2.22,-1.17 -3.56,-1.21 -1.78,0.04 -3.26,0.77 -4.44,2.19 -0.99,1.48 -1.47,3.14 -1.42,4.97 0,2.42 0.69,4.94 2.08,7.55 0.67,1.23 1.54,2.26 2.6,3.11 1.06,0.85 2.28,1.28 3.64,1.28 z m 23.9,0.42 0,-6.8 -4.04,0 0,6.8 -6.73,0 0,4.07 6.73,0 0,6.8 4.04,0 0,-6.8 6.73,0 0,-4.07 -6.73,0 z m 0,0"
       id="path102" />
  </g>
</svg>
