<?xml version="1.0" encoding="iso-8859-1"?>
<!-- Generator: Adobe Illustrator 18.0.0, SVG Export Plug-In . SVG Version: 6.00 Build 0)  -->
<!DOCTYPE svg PUBLIC "-//W3C//DTD SVG 1.1//EN" "http://www.w3.org/Graphics/SVG/1.1/DTD/svg11.dtd">
<svg version="1.1" id="Capa_1" xmlns="http://www.w3.org/2000/svg" xmlns:xlink="http://www.w3.org/1999/xlink" x="0px" y="0px"
	 viewBox="0 0 409.848 409.848" style="enable-background:new 0 0 409.848 409.848;" xml:space="preserve">
<g>
	<path d="M359.848,49.785H50c-27.614,0-50,22.386-50,50v210.277c0,27.614,22.386,50,50,50h309.848c27.614,0,50-22.386,50-50V99.785
		C409.848,72.171,387.462,49.785,359.848,49.785z M369.848,310.062c0,5.514-4.486,10-10,10H50c-5.514,0-10-4.486-10-10V99.785
		c0-5.514,4.486-10,10-10h309.848c5.514,0,10,4.486,10,10V310.062z"/>
	<path d="M248.214,174.113c-6.909-6.909-18.111-6.909-25.019,0l-64.973,64.973l-18.271-18.271
		c-3.317-3.318-7.817-5.181-12.509-5.181s-9.192,1.863-12.509,5.181l-47.318,47.318c-5.059,5.059-6.573,12.668-3.835,19.279
		c2.738,6.611,9.189,10.921,16.345,10.921h61.561h33.074h154.965c7.155,0,13.606-4.311,16.344-10.921
		c2.738-6.611,1.225-14.22-3.835-19.279L248.214,174.113z"/>
	<circle cx="126.924" cy="149.334" r="26.333"/>
</g>
<g>
</g>
<g>
</g>
<g>
</g>
<g>
</g>
<g>
</g>
<g>
</g>
<g>
</g>
<g>
</g>
<g>
</g>
<g>
</g>
<g>
</g>
<g>
</g>
<g>
</g>
<g>
</g>
<g>
</g>
</svg>
