<?xml version="1.0" encoding="UTF-8" standalone="no"?>
<!-- Created with Inkscape (http://www.inkscape.org/) -->

<svg
   xmlns:dc="http://purl.org/dc/elements/1.1/"
   xmlns:cc="http://creativecommons.org/ns#"
   xmlns:rdf="http://www.w3.org/1999/02/22-rdf-syntax-ns#"
   xmlns:svg="http://www.w3.org/2000/svg"
   xmlns="http://www.w3.org/2000/svg"
   xmlns:sodipodi="http://sodipodi.sourceforge.net/DTD/sodipodi-0.dtd"
   xmlns:inkscape="http://www.inkscape.org/namespaces/inkscape"
   width="94.199997"
   height="95.099998"
   id="svg3682"
   version="1.1"
   inkscape:version="0.48.4 r9939"
   sodipodi:docname="instagram.svg">
  <defs
     id="defs3684" />
  <sodipodi:namedview
     id="base"
     pagecolor="#ffffff"
     bordercolor="#666666"
     borderopacity="1.0"
     inkscape:pageopacity="0.0"
     inkscape:pageshadow="2"
     inkscape:zoom="1.4"
     inkscape:cx="100.65566"
     inkscape:cy="61.68435"
     inkscape:document-units="px"
     inkscape:current-layer="layer1"
     showgrid="false"
     inkscape:window-width="503"
     inkscape:window-height="421"
     inkscape:window-x="602"
     inkscape:window-y="34"
     inkscape:window-maximized="0"
     borderlayer="true"
     fit-margin-top="0"
     fit-margin-left="0"
     fit-margin-right="0"
     fit-margin-bottom="0" />
  <metadata
     id="metadata3687">
    <rdf:RDF>
      <cc:Work
         rdf:about="">
        <dc:format>image/svg+xml</dc:format>
        <dc:type
           rdf:resource="http://purl.org/dc/dcmitype/StillImage" />
        <dc:title />
      </cc:Work>
    </rdf:RDF>
  </metadata>
  <g
     inkscape:label="Capa 1"
     inkscape:groupmode="layer"
     id="layer1"
     transform="translate(-192.9,-613.38361)">
    <path
       style="fill:#000000;fill-rule:evenodd"
       inkscape:connector-curvature="0"
       d="m 220.93,639.80361 35.01,0 c 3.32,0 6.04,2.48 6.04,6.1 l 0,35.34 c 0,3.62 -2.72,6.1 -6.04,6.1 l -35.01,0 c -3.33,0 -6.05,-2.48 -6.05,-6.1 l 0,-35.34 c 0,-3.62 2.72,-6.1 6.05,-6.1 l 0,0 0,0 z m 28.26,5.28 c -1.16,0 -2.12,0.96 -2.12,2.14 l 0,5.12 c 0,1.18 0.96,2.14 2.12,2.14 l 5.33,0 c 1.16,0 2.12,-0.96 2.12,-2.14 l 0,-5.12 c 0,-1.18 -0.96,-2.14 -2.12,-2.14 l -5.33,0 0,0 0,0 z m 7.47,14.82 -4.15,0 c 0.4,1.3 0.61,2.67 0.61,4.08 0,7.91 -6.56,14.32 -14.64,14.32 -8.09,0 -14.64,-6.41 -14.64,-14.32 0,-1.41 0.21,-2.78 0.6,-4.08 l -4.33,0 0,20.09 c 0,1.04 0.85,1.89 1.88,1.89 l 32.8,0 c 1.03,0 1.87,-0.85 1.87,-1.89 l 0,-20.09 0,0 0,0 z m -18.18,-5.69 c -5.23,0 -9.46,4.15 -9.46,9.26 0,5.11 4.23,9.25 9.46,9.25 5.22,0 9.46,-4.14 9.46,-9.25 0,-5.11 -4.24,-9.26 -9.46,-9.26 l 0,0 z m 0,0"
       id="path116" />
  </g>
</svg>
