<?xml version="1.0" encoding="UTF-8" standalone="no"?>
<!-- Created with Inkscape (http://www.inkscape.org/) -->

<svg
   xmlns:dc="http://purl.org/dc/elements/1.1/"
   xmlns:cc="http://creativecommons.org/ns#"
   xmlns:rdf="http://www.w3.org/1999/02/22-rdf-syntax-ns#"
   xmlns:svg="http://www.w3.org/2000/svg"
   xmlns="http://www.w3.org/2000/svg"
   xmlns:sodipodi="http://sodipodi.sourceforge.net/DTD/sodipodi-0.dtd"
   xmlns:inkscape="http://www.inkscape.org/namespaces/inkscape"
   width="94.199997"
   height="95.099998"
   id="svg3682"
   version="1.1"
   inkscape:version="0.48.4 r9939"
   sodipodi:docname="linkedin.svg">
  <defs
     id="defs3684" />
  <sodipodi:namedview
     id="base"
     pagecolor="#ffffff"
     bordercolor="#666666"
     borderopacity="1.0"
     inkscape:pageopacity="0.0"
     inkscape:pageshadow="2"
     inkscape:zoom="0.98994949"
     inkscape:cx="124.89579"
     inkscape:cy="-14.752805"
     inkscape:document-units="px"
     inkscape:current-layer="layer1"
     showgrid="false"
     inkscape:window-width="503"
     inkscape:window-height="421"
     inkscape:window-x="819"
     inkscape:window-y="75"
     inkscape:window-maximized="0"
     borderlayer="true"
     fit-margin-top="0"
     fit-margin-left="0"
     fit-margin-right="0"
     fit-margin-bottom="0" />
  <metadata
     id="metadata3687">
    <rdf:RDF>
      <cc:Work
         rdf:about="">
        <dc:format>image/svg+xml</dc:format>
        <dc:type
           rdf:resource="http://purl.org/dc/dcmitype/StillImage" />
        <dc:title />
      </cc:Work>
    </rdf:RDF>
  </metadata>
  <g
     inkscape:label="Capa 1"
     inkscape:groupmode="layer"
     id="layer1"
     transform="translate(-135.75714,-361.95504)">
    <path
       style="fill:#000000;fill-rule:evenodd"
       inkscape:connector-curvature="0"
       d="m 172.92714,390.25504 c 0,2.62 -1.92,4.74 -5.07,4.74 -2.97,0 -4.89,-2.12 -4.89,-4.74 0,-2.68 1.98,-4.74 5.01,-4.74 3.03,0 4.89,2.06 4.95,4.74 l 0,0 z m -9.71,39.01 0,-30.52 9.4,0 0,30.52 -9.4,0 0,0 z m 0,0"
       id="path106" />
    <path
       style="fill:#000000;fill-rule:evenodd"
       inkscape:connector-curvature="0"
       d="m 178.23714,408.48504 c 0,-3.81 -0.12,-6.99 -0.24,-9.74 l 8.16,0 0.43,4.25 0.19,0 c 1.23,-2 4.26,-4.94 9.33,-4.94 6.19,0 10.83,4.19 10.83,13.17 l 0,18.04 -9.4,0 0,-16.91 c 0,-3.94 -1.36,-6.62 -4.77,-6.62 -2.59,0 -4.14,1.81 -4.82,3.56 -0.25,0.62 -0.31,1.5 -0.31,2.37 l 0,17.6 -9.4,0 0,-20.78 0,0 z m 0,0"
       id="path108" />
  </g>
</svg>
