<?xml version="1.0" encoding="UTF-8" standalone="no"?>
<!-- Created with Inkscape (http://www.inkscape.org/) -->

<svg
   xmlns:dc="http://purl.org/dc/elements/1.1/"
   xmlns:cc="http://creativecommons.org/ns#"
   xmlns:rdf="http://www.w3.org/1999/02/22-rdf-syntax-ns#"
   xmlns:svg="http://www.w3.org/2000/svg"
   xmlns="http://www.w3.org/2000/svg"
   xmlns:sodipodi="http://sodipodi.sourceforge.net/DTD/sodipodi-0.dtd"
   xmlns:inkscape="http://www.inkscape.org/namespaces/inkscape"
   width="40.429996"
   height="39.997692"
   id="svg7102"
   version="1.1"
   inkscape:version="0.48.4 r9939"
   sodipodi:docname="Nuevo documento 39">
  <defs
     id="defs7104" />
  <sodipodi:namedview
     id="base"
     pagecolor="#ffffff"
     bordercolor="#666666"
     borderopacity="1.0"
     inkscape:pageopacity="0.0"
     inkscape:pageshadow="2"
     inkscape:zoom="0.98994949"
     inkscape:cx="157.65813"
     inkscape:cy="-16.413695"
     inkscape:document-units="px"
     inkscape:current-layer="layer1"
     showgrid="false"
     fit-margin-top="0"
     fit-margin-left="0"
     fit-margin-right="0"
     fit-margin-bottom="0"
     inkscape:window-width="503"
     inkscape:window-height="421"
     inkscape:window-x="73"
     inkscape:window-y="74"
     inkscape:window-maximized="0" />
  <metadata
     id="metadata7107">
    <rdf:RDF>
      <cc:Work
         rdf:about="">
        <dc:format>image/svg+xml</dc:format>
        <dc:type
           rdf:resource="http://purl.org/dc/dcmitype/StillImage" />
        <dc:title></dc:title>
      </cc:Work>
    </rdf:RDF>
  </metadata>
  <g
     inkscape:label="Capa 1"
     inkscape:groupmode="layer"
     id="layer1"
     transform="translate(-94.070714,-483.79191)">
    <path
       d="m 133.67071,484.6096 c -0.02,-0.01 -0.03,-0.02 -0.04,-0.03 -0.65,-0.64 -1.55,-0.89 -2.38,-0.75 l -9.62,0.12 c -1.52,0.02 -2.74,1.27 -2.72,2.79 0.02,1.52 1.17,2.65 2.79,2.72 l 3.22,-0.05 -4.71,4.72 c -2.8,-2.07 -6.18,-3.19 -9.72,-3.19 -4.39,0 -8.52,1.71 -11.619996,4.81 -6.4,6.41 -6.4,16.83 0,23.23 3.099996,3.1 7.229996,4.81 11.619996,4.81 4.38,0 8.51,-1.71 11.61,-4.81 5.67,-5.68 6.33,-14.5 1.95,-20.89 l 4.95,-4.94 0,3.6 c 0,1.53 1.23,2.76 2.75,2.76 1.52,0 2.75,-1.24 2.75,-2.76 l 0,-10.18 c 0,-0.73 -0.31,-1.44 -0.83,-1.96 l 0,0 z m -15.46,30.48 c -4.13,4.12 -11.32,4.12 -15.44,0 -4.259996,-4.26 -4.259996,-11.19 0,-15.44 2.06,-2.07 4.8,-3.2 7.72,-3.2 2.92,0 5.65,1.13 7.72,3.2 4.26,4.25 4.26,11.18 0,15.44 l 0,0 z m 0,0"
       id="path438"
       inkscape:connector-curvature="0"
       style="fill:#000000;fill-rule:evenodd" />
  </g>
</svg>
