<?xml version="1.0" encoding="UTF-8" standalone="no"?>
<!-- Created with Inkscape (http://www.inkscape.org/) -->

<svg
   xmlns:dc="http://purl.org/dc/elements/1.1/"
   xmlns:cc="http://creativecommons.org/ns#"
   xmlns:rdf="http://www.w3.org/1999/02/22-rdf-syntax-ns#"
   xmlns:svg="http://www.w3.org/2000/svg"
   xmlns="http://www.w3.org/2000/svg"
   xmlns:sodipodi="http://sodipodi.sourceforge.net/DTD/sodipodi-0.dtd"
   xmlns:inkscape="http://www.inkscape.org/namespaces/inkscape"
   width="38.16"
   height="39.23"
   id="svg7193"
   version="1.1"
   inkscape:version="0.48.4 r9939"
   sodipodi:docname="Nuevo documento 45">
  <defs
     id="defs7195" />
  <sodipodi:namedview
     id="base"
     pagecolor="#ffffff"
     bordercolor="#666666"
     borderopacity="1.0"
     inkscape:pageopacity="0.0"
     inkscape:pageshadow="2"
     inkscape:zoom="0.35"
     inkscape:cx="-153.77714"
     inkscape:cy="-28.956433"
     inkscape:document-units="px"
     inkscape:current-layer="layer1"
     showgrid="false"
     fit-margin-top="0"
     fit-margin-left="0"
     fit-margin-right="0"
     fit-margin-bottom="0"
     inkscape:window-width="503"
     inkscape:window-height="421"
     inkscape:window-x="73"
     inkscape:window-y="74"
     inkscape:window-maximized="0" />
  <metadata
     id="metadata7198">
    <rdf:RDF>
      <cc:Work
         rdf:about="">
        <dc:format>image/svg+xml</dc:format>
        <dc:type
           rdf:resource="http://purl.org/dc/dcmitype/StillImage" />
        <dc:title></dc:title>
      </cc:Work>
    </rdf:RDF>
  </metadata>
  <g
     inkscape:label="Capa 1"
     inkscape:groupmode="layer"
     id="layer1"
     transform="translate(-503.77714,-464.17575)">
    <path
       d="m 520.35714,494.69575 -2.76,0 0,-2.63 c 5.48,-0.99 9.63,-5.81 9.63,-11.6 0,-1.56 -0.29,-3.05 -0.85,-4.42 -0.6,-0.23 -1.25,-0.35 -1.91,-0.35 -1.06,0 -2.06,0.3 -2.93,0.86 0.73,1.13 1.15,2.47 1.15,3.91 0,3.98 -3.21,7.22 -7.17,7.22 -3.96,0 -7.17,-3.24 -7.17,-7.22 0,-3.03 1.86,-5.62 4.5,-6.69 0.53,-0.85 1.17,-1.64 1.89,-2.37 0.99,-0.99 2.1,-1.81 3.31,-2.45 -0.82,-0.18 -1.66,-0.28 -2.53,-0.28 -6.46,0 -11.74,5.29 -11.74,11.79 0,5.66 3.99,10.39 9.25,11.53 l 0,2.7 -2.58,0 c -1.26,0 -2.28,1.04 -2.28,2.3 0,1.27 1.02,2.3 2.28,2.3 l 2.58,0 0,1.83 c 0,1.26 1.03,2.28 2.28,2.28 1.26,0 2.29,-1.02 2.29,-2.28 l 0,-1.83 2.76,0 c 1.26,0 2.28,-1.03 2.28,-2.3 0,-1.26 -1.02,-2.3 -2.28,-2.3 l 0,0 z m 0,0"
       id="path440"
       inkscape:connector-curvature="0"
       style="fill:#000000;fill-rule:evenodd" />
    <path
       d="m 539.55714,464.17575 c -0.1,0 -7.26,0.08 -7.26,0.08 -1.28,0.01 -2.3,1.27 -2.28,2.55 0.01,1.28 1.04,2.5 2.3,2.5 l 0.03,0 1.34,-0.22 -2.43,2.34 c -1.98,-1.38 -4.33,-2.19 -6.79,-2.19 -3.18,0 -6.17,1.22 -8.42,3.49 -3.6,3.61 -4.41,8.97 -2.44,13.37 0.13,0.05 0.25,0.09 0.38,0.12 0.44,0.12 0.89,0.18 1.33,0.2 0.07,0 0.13,0 0.2,0 1.09,0 2.16,-0.3 3.1,-0.88 -2.12,-2.87 -1.89,-6.95 0.7,-9.55 1.37,-1.39 3.2,-2.15 5.15,-2.15 1.95,0 3.78,0.76 5.16,2.15 2.84,2.86 2.84,7.51 0,10.37 -1.05,1.05 -2.37,1.75 -3.8,2.02 -0.1,0.13 -0.2,0.26 -0.3,0.38 -1.34,1.64 -3.05,2.92 -4.98,3.74 1.25,0.43 2.57,0.66 3.92,0.66 3.18,0 6.17,-1.25 8.43,-3.51 4.03,-4.07 4.7,-10.34 1.72,-14.98 l 2.74,-2.62 0,1.63 c 0,1.28 1.01,2.32 2.29,2.32 1.28,0 2.29,-1.04 2.29,-2.32 l 0,-7.19 c 0,-0.62 -0.11,-2.17 -2.38,-2.31 l 0,0 z m 0,0"
       id="path442"
       inkscape:connector-curvature="0"
       style="fill:#000000;fill-rule:evenodd" />
  </g>
</svg>
