<?xml version="1.0" encoding="UTF-8" standalone="no"?>
<!-- Created with Inkscape (http://www.inkscape.org/) -->

<svg
   xmlns:dc="http://purl.org/dc/elements/1.1/"
   xmlns:cc="http://creativecommons.org/ns#"
   xmlns:rdf="http://www.w3.org/1999/02/22-rdf-syntax-ns#"
   xmlns:svg="http://www.w3.org/2000/svg"
   xmlns="http://www.w3.org/2000/svg"
   xmlns:sodipodi="http://sodipodi.sourceforge.net/DTD/sodipodi-0.dtd"
   xmlns:inkscape="http://www.inkscape.org/namespaces/inkscape"
   width="185.44"
   height="184.55"
   id="svg7858"
   version="1.1"
   inkscape:version="0.48.4 r9939"
   sodipodi:docname="nekuno.svg">
  <defs
     id="defs7860" />
  <sodipodi:namedview
     id="base"
     pagecolor="#ffffff"
     bordercolor="#666666"
     borderopacity="1.0"
     inkscape:pageopacity="0.0"
     inkscape:pageshadow="2"
     inkscape:zoom="0.49497475"
     inkscape:cx="-31.646472"
     inkscape:cy="102.63008"
     inkscape:document-units="px"
     inkscape:current-layer="layer1"
     showgrid="false"
     fit-margin-top="0"
     fit-margin-left="0"
     fit-margin-right="0"
     fit-margin-bottom="0"
     inkscape:window-width="503"
     inkscape:window-height="421"
     inkscape:window-x="48"
     inkscape:window-y="48"
     inkscape:window-maximized="0" />
  <metadata
     id="metadata7863">
    <rdf:RDF>
      <cc:Work
         rdf:about="">
        <dc:format>image/svg+xml</dc:format>
        <dc:type
           rdf:resource="http://purl.org/dc/dcmitype/StillImage" />
        <dc:title />
      </cc:Work>
    </rdf:RDF>
  </metadata>
  <g
     inkscape:label="Capa 1"
     inkscape:groupmode="layer"
     id="layer1"
     transform="translate(-404.42286,-465.80147)">
    <path
       d="m 438.33286,489.86147 2.75,-5.53 -4.68,4.05 c -20.32,17.56 -31.98,43 -31.98,69.79 0,2.74 0.13,5.51 0.37,8.24 l 0.97,10.91 1.5,-10.85 c 3.86,-27.88 14.44,-54.11 30.6,-75.84 0.18,-0.24 0.34,-0.5 0.47,-0.77 l 0,0 z m 0,0"
       id="path264"
       inkscape:connector-curvature="0"
       style="fill:#000000;fill-rule:evenodd" />
    <path
       d="m 434.87286,534.93147 c 10.04,-24.99 25.63,-46.95 45.08,-63.52 0.61,-0.51 1.09,-1.17 1.39,-1.9 l 0.86,-2.09 -2.23,0.4 c -4.91,0.88 -9.78,2.17 -14.49,3.84 -0.67,0.24 -1.3,0.64 -1.81,1.15 -16.14,16.22 -29.33,36.4 -38.17,58.38 -7.08,17.64 -11.46,36.33 -13.02,55.55 -0.56,6.93 1.01,13.69 4.54,19.54 0.89,1.47 1.83,2.93 2.8,4.36 l 2.46,3.6 -0.18,-4.35 c -1.11,-25.5 3.31,-51.43 12.77,-74.96 l 0,0 z m 0,0"
       id="path266"
       inkscape:connector-curvature="0"
       style="fill:#000000;fill-rule:evenodd" />
    <path
       d="m 453.01286,541.67147 c 11.73,-29.04 30.65,-53.83 54.72,-71.68 0.55,-0.41 1,-0.92 1.34,-1.51 0.23,-0.4 0.25,-0.87 0.03,-1.29 -0.21,-0.43 -0.61,-0.71 -1.09,-0.76 -3.23,-0.38 -6.52,-0.59 -9.8,-0.63 -1.31,0 -1.59,0.1 -2.74,0.99 -22.56,18.45 -40.48,43.04 -51.82,71.13 -10.42,25.78 -14.97,53.81 -13.17,81.07 0.17,2.43 1.24,4.7 3.04,6.39 1.95,1.83 4.02,3.61 6.13,5.28 l 2.42,1.9 -0.41,-3.04 c -3.93,-29.37 -0.01,-59.75 11.35,-87.85 l 0,0 z m 0,0"
       id="path268"
       inkscape:connector-curvature="0"
       style="fill:#000000;fill-rule:evenodd" />
    <path
       d="m 487.69286,526.20147 c -1.2,0 -2.42,0.41 -3.44,1.16 -6.17,4.53 -7.35,5.32 -12.3,8.62 -0.93,0.62 -1.88,1.23 -2.83,1.86 -2.65,1.72 -5.39,3.51 -8.05,5.52 -1.07,0.81 -1.76,2 -1.94,3.33 -0.18,1.33 0.17,2.65 0.99,3.71 0.96,1.26 2.42,1.99 4.01,1.99 0.92,0 1.93,-0.36 3.19,-1.12 2.02,-1.23 3.73,-2.45 5.55,-3.73 1.42,-1.01 2.9,-2.06 4.5,-3.09 4.47,-2.85 9.08,-5.8 13.44,-9.45 1.03,-0.86 1.66,-2.08 1.78,-3.41 0.12,-1.34 -0.29,-2.65 -1.16,-3.67 -0.93,-1.11 -2.26,-1.72 -3.74,-1.72 l 0,0 z m 0,0"
       id="path270"
       inkscape:connector-curvature="0"
       style="fill:#000000;fill-rule:evenodd" />
    <path
       d="m 453.65286,573.23147 c -0.45,1.27 -0.38,2.63 0.2,3.84 0.84,1.74 2.62,2.86 4.56,2.86 0.75,0 1.48,-0.16 2.17,-0.49 22.29,-10.62 42.48,-24.77 59.99,-42.05 1.98,-1.95 1.99,-5.14 0.04,-7.11 -0.96,-0.96 -2.23,-1.49 -3.59,-1.49 -1.34,0 -2.6,0.52 -3.55,1.46 -16.71,16.49 -35.97,29.99 -57.24,40.12 -1.22,0.58 -2.14,1.6 -2.58,2.86 l 0,0 z m 0,0"
       id="path272"
       inkscape:connector-curvature="0"
       style="fill:#000000;fill-rule:evenodd" />
    <path
       d="m 456.41286,605.59147 c 30.54,-11.24 59.57,-31.28 86.29,-59.55 1.91,-2.02 1.81,-5.2 -0.21,-7.1 -0.94,-0.89 -2.17,-1.37 -3.46,-1.37 -1.4,0 -2.71,0.56 -3.67,1.58 -25.64,27.13 -53.38,46.31 -82.44,57.01 -1.27,0.46 -2.27,1.39 -2.83,2.61 -0.57,1.22 -0.62,2.58 -0.15,3.84 0.72,1.97 2.62,3.29 4.73,3.29 0.59,0 1.18,-0.1 1.74,-0.31 z m 0,0"
       id="path274"
       inkscape:connector-curvature="0"
       style="fill:#000000;fill-rule:evenodd" />
    <path
       d="m 562.70286,555.77147 c 0.84,-1.04 1.24,-2.35 1.1,-3.68 -0.14,-1.34 -0.79,-2.54 -1.84,-3.39 -0.91,-0.73 -2,-1.12 -3.17,-1.12 -1.53,0 -2.96,0.68 -3.92,1.86 -27.02,33.13 -62.03,57.27 -101.26,69.82 -1.28,0.4 -2.32,1.29 -2.94,2.48 -0.61,1.2 -0.73,2.56 -0.32,3.84 0.68,2.08 2.6,3.49 4.8,3.49 0.52,0 1.04,-0.08 1.54,-0.25 41.1,-13.13 77.75,-38.4 106.01,-73.05 l 0,0 z m 0,0"
       id="path276"
       inkscape:connector-curvature="0"
       style="fill:#000000;fill-rule:evenodd" />
    <path
       d="m 579.73286,568.31147 0.06,-0.08 -1.01,-0.72 1.05,0.66 c 0.3,-0.41 0.59,-0.82 0.89,-1.22 1.6,-2.22 1.26,-5.36 -0.77,-7.01 -0.91,-0.74 -2.02,-1.14 -3.19,-1.14 -1.62,0 -3.16,0.79 -4.1,2.1 -0.33,0.46 -0.66,0.91 -0.98,1.36 -28.17,37.81 -67.14,65.23 -109.75,77.2 -0.89,0.25 -1.7,0.74 -2.32,1.41 l -1.2,1.3 1.63,0.69 c 3.66,1.55 7.55,2.33 11.57,2.33 3.77,0 7.48,-0.69 11.02,-2.06 18.77,-7.26 36.65,-17.38 53.13,-30.06 16.52,-12.72 31.31,-27.77 43.97,-44.76 l 0,0 z m 0,0"
       id="path278"
       inkscape:connector-curvature="0"
       style="fill:#000000;fill-rule:evenodd" />
    <path
       d="m 583.93286,581.65147 c -0.63,0.35 -1.16,0.83 -1.58,1.42 -19.9,27.36 -47.13,49.53 -78.76,64.14 -0.67,0.25 -1.1,0.61 -1.28,1.07 -0.14,0.35 -0.12,0.76 0.05,1.1 0.43,0.86 1.48,0.97 2.46,0.97 0.14,0 0.23,0 0.29,-0.01 13.15,-1.11 26.17,-6.03 37.65,-14.2 7.75,-5.52 15.27,-11.69 22.33,-18.34 10.13,-9.52 17.42,-21.26 21.1,-33.93 l 0.08,-0.3 c 0.19,-0.68 -0.09,-1.18 -0.27,-1.43 -0.5,-0.65 -1.37,-0.89 -2.07,-0.49 l 0,0 z m 0,0"
       id="path280"
       inkscape:connector-curvature="0"
       style="fill:#000000;fill-rule:evenodd" />
    <path
       d="m 589.79286,556.11147 c -0.04,-1.93 -0.14,-3.88 -0.31,-5.8 -0.27,-3.21 -1.95,-6.13 -4.6,-8.03 -14.3,-10.21 -29.87,-18.46 -46.28,-24.49 -16.47,-6.06 -33.43,-9.76 -50.42,-11.01 -0.13,-0.01 -0.25,-0.01 -0.38,-0.01 -2.75,0 -5.01,2.24 -5.03,5 -0.01,2.58 2.16,4.84 4.86,5.04 35.75,2.68 71.31,16.98 100.14,40.29 l 2.09,1.69 -0.07,-2.68 0,0 z m 0,0"
       id="path282"
       inkscape:connector-curvature="0"
       style="fill:#000000;fill-rule:evenodd" />
    <path
       d="m 501.74286,488.46147 c -2.56,0 -4.71,1.92 -5,4.46 -0.29,2.57 1.63,5.05 4.3,5.54 35.44,6.49 61.01,17.09 82.89,34.37 l 3.11,2.46 -1.15,-3.79 c -0.75,-2.49 -1.62,-4.97 -2.58,-7.37 -1.61,-4.06 -4.58,-7.56 -8.35,-9.86 -19.79,-12.05 -43.44,-20.47 -72.3,-25.73 -0.3,-0.06 -0.61,-0.08 -0.92,-0.08 l 0,0 z m 0,0"
       id="path284"
       inkscape:connector-curvature="0"
       style="fill:#000000;fill-rule:evenodd" />
    <path
       d="m 519.01286,482.83147 c 22.82,4.39 36.44,10.87 45.75,16.02 l 6.98,3.86 -5.47,-5.8 c -4.11,-4.35 -8.77,-8.26 -13.86,-11.61 -8.61,-5.68 -18.14,-9.62 -28.34,-11.71 -1.12,-0.23 -2.24,-0.45 -3.37,-0.67 -0.32,-0.06 -0.64,-0.1 -0.96,-0.1 -2.53,0 -4.68,1.9 -5,4.42 -0.33,2.56 1.59,5.07 4.27,5.59 l 0,0 z m 0,0"
       id="path286"
       inkscape:connector-curvature="0"
       style="fill:#000000;fill-rule:evenodd" />
  </g>
</svg>
