<?xml version="1.0" encoding="UTF-8" standalone="no"?>
<svg
   xmlns:sketch="http://www.bohemiancoding.com/sketch/ns"
   xmlns:dc="http://purl.org/dc/elements/1.1/"
   xmlns:cc="http://creativecommons.org/ns#"
   xmlns:rdf="http://www.w3.org/1999/02/22-rdf-syntax-ns#"
   xmlns:svg="http://www.w3.org/2000/svg"
   xmlns="http://www.w3.org/2000/svg"
   xmlns:sodipodi="http://sodipodi.sourceforge.net/DTD/sodipodi-0.dtd"
   xmlns:inkscape="http://www.inkscape.org/namespaces/inkscape"
   width="100px"
   height="100px"
   viewBox="0 0 100 100"
   version="1.1"
   id="svg2"
   inkscape:version="0.48.4 r9939"
   sodipodi:docname="bt_pause (1).svg">
  <metadata
     id="metadata14">
    <rdf:RDF>
      <cc:Work
         rdf:about="">
        <dc:format>image/svg+xml</dc:format>
        <dc:type
           rdf:resource="http://purl.org/dc/dcmitype/StillImage" />
        <dc:title>pause</dc:title>
      </cc:Work>
    </rdf:RDF>
  </metadata>
  <sodipodi:namedview
     pagecolor="#ffffff"
     bordercolor="#666666"
     borderopacity="1"
     objecttolerance="10"
     gridtolerance="10"
     guidetolerance="10"
     inkscape:pageopacity="0"
     inkscape:pageshadow="2"
     inkscape:window-width="640"
     inkscape:window-height="480"
     id="namedview12"
     showgrid="false"
     inkscape:zoom="2.36"
     inkscape:cx="50"
     inkscape:cy="40.818527"
     inkscape:window-x="0"
     inkscape:window-y="0"
     inkscape:window-maximized="0"
     inkscape:current-layer="svg2" />
  <!-- Generator: Sketch 3.4.4 (17249) - http://www.bohemiancoding.com/sketch -->
  <title
     id="title4">pause</title>
  <desc
     id="desc6">Created with Sketch.</desc>
  <defs
     id="defs8" />
  <g
     id="Page-1"
     stroke="none"
     stroke-width="1"
     fill="none"
     fill-rule="evenodd"
     sketch:type="MSPage"
     style="fill:#000000">
    <path
       d="M93.0164887,24.9295852 C79.2526792,1.0899027 48.7675998,-7.07866873 24.9298221,6.68768048 C1.09013956,20.4495852 -7.07874933,50.9333948 6.68759988,74.7721249 C20.4495046,98.6118075 50.9336316,106.781649 74.7717268,93.0165694 C98.6117268,79.2499027 106.784425,48.7676805 93.0164887,24.9295852 L93.0164887,24.9295852 L93.0164887,24.9295852 Z M69.8178683,84.4105664 C50.7489794,95.4238998 26.3594556,88.8886617 15.3492969,69.8159633 C4.33659848,50.7470744 10.8740588,26.357868 29.9435826,15.3499315 C49.0137413,4.33723311 73.4019953,10.8718363 84.412789,29.9438998 C95.4239001,49.0156458 88.8883445,73.3997728 69.8178683,84.4105664 L69.8178683,84.4105664 L69.8178683,84.4105664 Z M40.1322314,31 C37.8512397,31 36,32.8512396 36,35.1322314 L36,64.8595041 C36,67.1487603 37.8512397,68.9917355 40.1322314,68.9917355 C42.4132232,68.9917355 44.2644628,67.1487603 44.2644628,64.8595041 L44.2644628,35.1322314 C44.2644628,32.8512396 42.4132232,31 40.1322314,31 L40.1322314,31 L40.1322314,31 L40.1322314,31 Z M60.1322314,31 C57.8512397,31 56,32.8512396 56,35.1322314 L56,64.8595041 C56,67.1487603 57.8512397,68.9917355 60.1322314,68.9917355 C62.4132231,68.9917355 64.2644628,67.1487603 64.2644628,64.8595041 L64.2644628,35.1322314 C64.2644628,32.8512396 62.4132231,31 60.1322314,31 L60.1322314,31 L60.1322314,31 L60.1322314,31 Z"
       id="pause"
       fill="#FFFFFF"
       sketch:type="MSShapeGroup"
       style="fill:#000000" />
  </g>
</svg>
