<?xml version="1.0" encoding="UTF-8" standalone="no"?>
<!-- Created with Inkscape (http://www.inkscape.org/) -->

<svg
   xmlns:dc="http://purl.org/dc/elements/1.1/"
   xmlns:cc="http://creativecommons.org/ns#"
   xmlns:rdf="http://www.w3.org/1999/02/22-rdf-syntax-ns#"
   xmlns:svg="http://www.w3.org/2000/svg"
   xmlns="http://www.w3.org/2000/svg"
   xmlns:sodipodi="http://sodipodi.sourceforge.net/DTD/sodipodi-0.dtd"
   xmlns:inkscape="http://www.inkscape.org/namespaces/inkscape"
   width="60"
   height="60"
   id="svg6960"
   version="1.1"
   inkscape:version="0.48.4 r9939"
   sodipodi:docname="Nuevo documento 32">
  <defs
     id="defs6962" />
  <sodipodi:namedview
     id="base"
     pagecolor="#ffffff"
     bordercolor="#666666"
     borderopacity="1.0"
     inkscape:pageopacity="0.0"
     inkscape:pageshadow="2"
     inkscape:zoom="0.98994949"
     inkscape:cx="11.814886"
     inkscape:cy="-1.7172982"
     inkscape:document-units="px"
     inkscape:current-layer="layer1"
     showgrid="false"
     fit-margin-top="0"
     fit-margin-left="0"
     fit-margin-right="0"
     fit-margin-bottom="0"
     inkscape:window-width="503"
     inkscape:window-height="421"
     inkscape:window-x="48"
     inkscape:window-y="48"
     inkscape:window-maximized="0" />
  <metadata
     id="metadata6965">
    <rdf:RDF>
      <cc:Work
         rdf:about="">
        <dc:format>image/svg+xml</dc:format>
        <dc:type
           rdf:resource="http://purl.org/dc/dcmitype/StillImage" />
        <dc:title></dc:title>
      </cc:Work>
    </rdf:RDF>
  </metadata>
  <g
     inkscape:label="Capa 1"
     inkscape:groupmode="layer"
     id="layer1"
     transform="translate(-372.85714,-439.50504)">
    <path
       style="fill:#000000;fill-rule:evenodd"
       inkscape:connector-curvature="0"
       d="m 402.85714,439.50504 c -16.57,0 -30,13.43 -30,30 0,16.57 13.43,30 30,30 16.57,0 30,-13.43 30,-30 0,-16.57 -13.43,-30 -30,-30 l 0,0 0,0 0,0 z m -27.69,30 c 0,-15.27 12.42,-27.69 27.69,-27.69 15.27,0 27.69,12.42 27.69,27.69 0,6.71 -2.4,12.86 -6.37,17.66 -0.9,-1.78 -2.05,-3.08 -3.46,-3.43 l -10.58,-1.92 c -0.96,-1.93 -0.96,-2.76 -0.96,-3.85 0.96,-0.96 2.88,-1.92 2.88,-2.88 0.97,-2.89 0.97,-4.81 0.97,-4.81 0.49,-0.72 1.92,-1.92 1.92,-3.85 0,-1.92 -1.92,-3.84 -1.92,-4.8 0,-7.7 -3.92,-10.58 -9.62,-10.58 -5.45,0 -9.61,2.88 -9.61,10.58 0,0.96 -1.93,2.88 -1.93,4.8 0,1.93 1.38,3.19 1.93,3.85 0,0 0,1.92 0.96,4.81 0,0.96 1.92,1.92 2.88,2.88 0,0.96 0,1.92 -0.96,3.85 l -10.58,1.92 c -1.62,0.41 -2.9,2.06 -3.84,4.25 -4.4,-4.9 -7.09,-11.38 -7.09,-18.48 l 0,0 z m 0,0"
       id="path216" />
  </g>
</svg>
