<?xml version="1.0" encoding="UTF-8" standalone="no"?>
<!-- Created with Inkscape (http://www.inkscape.org/) -->

<svg
   xmlns:dc="http://purl.org/dc/elements/1.1/"
   xmlns:cc="http://creativecommons.org/ns#"
   xmlns:rdf="http://www.w3.org/1999/02/22-rdf-syntax-ns#"
   xmlns:svg="http://www.w3.org/2000/svg"
   xmlns="http://www.w3.org/2000/svg"
   xmlns:sodipodi="http://sodipodi.sourceforge.net/DTD/sodipodi-0.dtd"
   xmlns:inkscape="http://www.inkscape.org/namespaces/inkscape"
   width="37.279999"
   height="32.310001"
   id="svg7388"
   version="1.1"
   inkscape:version="0.48.4 r9939"
   sodipodi:docname="Nuevo documento 55">
  <defs
     id="defs7390" />
  <sodipodi:namedview
     id="base"
     pagecolor="#ffffff"
     bordercolor="#666666"
     borderopacity="1.0"
     inkscape:pageopacity="0.0"
     inkscape:pageshadow="2"
     inkscape:zoom="1.4"
     inkscape:cx="-10.621488"
     inkscape:cy="-12.547984"
     inkscape:document-units="px"
     inkscape:current-layer="layer1"
     showgrid="false"
     fit-margin-top="0"
     fit-margin-left="0"
     fit-margin-right="0"
     fit-margin-bottom="0"
     inkscape:window-width="503"
     inkscape:window-height="421"
     inkscape:window-x="48"
     inkscape:window-y="48"
     inkscape:window-maximized="0" />
  <metadata
     id="metadata7393">
    <rdf:RDF>
      <cc:Work
         rdf:about="">
        <dc:format>image/svg+xml</dc:format>
        <dc:type
           rdf:resource="http://purl.org/dc/dcmitype/StillImage" />
        <dc:title></dc:title>
      </cc:Work>
    </rdf:RDF>
  </metadata>
  <g
     inkscape:label="Capa 1"
     inkscape:groupmode="layer"
     id="layer1"
     transform="translate(-541.33,-427.49075)">
    <path
       d="m 577.15,433.92075 c -0.97,-0.97 -2.14,-1.46 -3.51,-1.46 l -4.35,0 -0.99,-2.64 c -0.24,-0.63 -0.69,-1.18 -1.35,-1.64 -0.65,-0.46 -1.32,-0.69 -2.01,-0.69 l -9.94,0 c -0.68,0 -1.35,0.23 -2.01,0.69 -0.65,0.46 -1.1,1.01 -1.35,1.64 l -0.99,2.64 -4.35,0 c -1.37,0 -2.54,0.49 -3.51,1.46 -0.97,0.97 -1.46,2.14 -1.46,3.51 l 0,17.4 c 0,1.37 0.49,2.54 1.46,3.51 0.97,0.97 2.14,1.46 3.51,1.46 l 27.34,0 c 1.37,0 2.54,-0.49 3.51,-1.46 0.97,-0.97 1.46,-2.14 1.46,-3.51 l 0,-17.4 c 0,-1.37 -0.49,-2.54 -1.46,-3.51 l 0,0 z m -11.03,18.36 c -1.71,1.7 -3.75,2.55 -6.15,2.55 -2.39,0 -4.44,-0.85 -6.14,-2.55 -1.71,-1.7 -2.56,-3.75 -2.56,-6.15 0,-2.39 0.85,-4.44 2.56,-6.14 1.7,-1.7 3.75,-2.56 6.14,-2.56 2.4,0 4.44,0.86 6.15,2.56 1.7,1.7 2.55,3.75 2.55,6.14 0,2.4 -0.85,4.45 -2.55,6.15 l 0,0 z m 0,0"
       id="path40"
       inkscape:connector-curvature="0"
       style="fill:#000000;fill-rule:evenodd" />
    <path
       d="m 559.97,440.54075 c -1.54,0 -2.86,0.55 -3.95,1.64 -1.09,1.1 -1.64,2.41 -1.64,3.95 0,1.54 0.55,2.86 1.64,3.95 1.09,1.1 2.41,1.64 3.95,1.64 1.54,0 2.86,-0.54 3.95,-1.64 1.1,-1.09 1.64,-2.41 1.64,-3.95 0,-1.54 -0.54,-2.85 -1.64,-3.95 -1.09,-1.09 -2.41,-1.64 -3.95,-1.64 l 0,0 z m 0,0"
       id="path42"
       inkscape:connector-curvature="0"
       style="fill:#000000;fill-rule:evenodd" />
  </g>
</svg>
