<?xml version="1.0" encoding="UTF-8" standalone="no"?>
<!-- Created with Inkscape (http://www.inkscape.org/) -->

<svg
   xmlns:dc="http://purl.org/dc/elements/1.1/"
   xmlns:cc="http://creativecommons.org/ns#"
   xmlns:rdf="http://www.w3.org/1999/02/22-rdf-syntax-ns#"
   xmlns:svg="http://www.w3.org/2000/svg"
   xmlns="http://www.w3.org/2000/svg"
   xmlns:sodipodi="http://sodipodi.sourceforge.net/DTD/sodipodi-0.dtd"
   xmlns:inkscape="http://www.inkscape.org/namespaces/inkscape"
   width="94.209999"
   height="95.099998"
   id="svg3682"
   version="1.1"
   inkscape:version="0.48.4 r9939"
   sodipodi:docname="pinterest.svg">
  <defs
     id="defs3684" />
  <sodipodi:namedview
     id="base"
     pagecolor="#ffffff"
     bordercolor="#666666"
     borderopacity="1.0"
     inkscape:pageopacity="0.0"
     inkscape:pageshadow="2"
     inkscape:zoom="1.979899"
     inkscape:cx="114.947"
     inkscape:cy="49.742156"
     inkscape:document-units="px"
     inkscape:current-layer="layer1"
     showgrid="false"
     inkscape:window-width="503"
     inkscape:window-height="421"
     inkscape:window-x="819"
     inkscape:window-y="75"
     inkscape:window-maximized="0"
     borderlayer="true"
     fit-margin-top="0"
     fit-margin-left="0"
     fit-margin-right="0"
     fit-margin-bottom="0" />
  <metadata
     id="metadata3687">
    <rdf:RDF>
      <cc:Work
         rdf:about="">
        <dc:format>image/svg+xml</dc:format>
        <dc:type
           rdf:resource="http://purl.org/dc/dcmitype/StillImage" />
        <dc:title />
      </cc:Work>
    </rdf:RDF>
  </metadata>
  <g
     inkscape:label="Capa 1"
     inkscape:groupmode="layer"
     id="layer1"
     transform="translate(-135.75214,-287.66933)">
    <path
       style="fill:#000000;fill-rule:evenodd"
       inkscape:connector-curvature="0"
       d="m 179.46214,342.78933 c -1.27,6.67 -2.82,13.06 -7.41,16.4 -1.41,-10.08 2.08,-17.64 3.71,-25.68 -2.77,-4.67 0.33,-14.07 6.17,-11.75 7.19,2.85 -6.22,17.36 2.78,19.18 9.4,1.89 13.23,-16.35 7.41,-22.28 -8.42,-8.56 -24.51,-0.19 -22.54,12.07 0.49,2.99 3.58,3.9 1.24,8.04 -5.39,-1.2 -7,-5.46 -6.79,-11.14 0.33,-9.29 8.33,-15.8 16.36,-16.7 10.14,-1.14 19.67,3.73 20.98,13.3 1.49,10.8 -4.58,22.5 -15.43,21.66 -2.94,-0.23 -4.17,-1.69 -6.48,-3.1 l 0,0 z m 0,0"
       id="path78" />
  </g>
</svg>
