<?xml version="1.0" encoding="UTF-8" standalone="no"?>
<!-- Generator: Avocode 2.4.5 - http://avocode.com -->

<svg
   xmlns:dc="http://purl.org/dc/elements/1.1/"
   xmlns:cc="http://creativecommons.org/ns#"
   xmlns:rdf="http://www.w3.org/1999/02/22-rdf-syntax-ns#"
   xmlns:svg="http://www.w3.org/2000/svg"
   xmlns="http://www.w3.org/2000/svg"
   xmlns:sodipodi="http://sodipodi.sourceforge.net/DTD/sodipodi-0.dtd"
   xmlns:inkscape="http://www.inkscape.org/namespaces/inkscape"
   height="33"
   width="33"
   viewBox="0 0 33 33"
   id="svg2"
   version="1.1"
   inkscape:version="0.48.4 r9939"
   sodipodi:docname="2-layers.svg">
  <metadata
     id="metadata12">
    <rdf:RDF>
      <cc:Work
         rdf:about="">
        <dc:format>image/svg+xml</dc:format>
        <dc:type
           rdf:resource="http://purl.org/dc/dcmitype/StillImage" />
        <dc:title></dc:title>
      </cc:Work>
    </rdf:RDF>
  </metadata>
  <defs
     id="defs10" />
  <sodipodi:namedview
     pagecolor="#ffffff"
     bordercolor="#666666"
     borderopacity="1"
     objecttolerance="10"
     gridtolerance="10"
     guidetolerance="10"
     inkscape:pageopacity="0"
     inkscape:pageshadow="2"
     inkscape:window-width="640"
     inkscape:window-height="480"
     id="namedview8"
     showgrid="false"
     fit-margin-top="0"
     fit-margin-left="0"
     fit-margin-right="0"
     fit-margin-bottom="0"
     inkscape:zoom="3.3714286"
     inkscape:cx="16"
     inkscape:cy="17"
     inkscape:window-x="0"
     inkscape:window-y="0"
     inkscape:window-maximized="0"
     inkscape:current-layer="svg2" />
  <path
     d="m 30.66,14.16 -11.82,0 0,-11.82 C 18.84,1.05 17.79,0 16.5,0 15.21,0 14.16,1.05 14.16,2.34 l 0,11.82 -11.82,0 C 1.05,14.16 0,15.21 0,16.5 c 0,1.29 1.05,2.34 2.34,2.34 l 11.82,0 0,11.82 c 0,1.29 1.05,2.34 2.34,2.34 1.29,0 2.34,-1.05 2.34,-2.34 l 0,-11.82 11.82,0 c 1.29,0 2.34,-1.05 2.34,-2.34 0,-1.29 -1.05,-2.34 -2.34,-2.34 l 0,0 z m 0,0"
     id="path6"
     style="fill:#000000;fill-rule:evenodd"
     inkscape:connector-curvature="0" />
</svg>
