<?xml version="1.0" encoding="iso-8859-1"?>
<!-- Generator: Adobe Illustrator 18.0.0, SVG Export Plug-In . SVG Version: 6.00 Build 0)  -->
<!DOCTYPE svg PUBLIC "-//W3C//DTD SVG 1.1//EN" "http://www.w3.org/Graphics/SVG/1.1/DTD/svg11.dtd">
<svg version="1.1" id="Capa_1" xmlns="http://www.w3.org/2000/svg" xmlns:xlink="http://www.w3.org/1999/xlink" x="0px" y="0px"
	 viewBox="0 0 454.62 454.62" style="enable-background:new 0 0 454.62 454.62;" xml:space="preserve">
<g>
	<path d="M346.331,195.389h-6.637v-83.006C339.693,50.41,289.281,0,227.31,0S114.927,50.41,114.927,112.383v83.006h-6.637
		c-23.137,0-41.888,18.752-41.888,41.889v175.455c0,23.137,18.752,41.888,41.888,41.888h238.04
		c23.137,0,41.888-18.751,41.888-41.888V237.277C388.218,214.141,369.468,195.389,346.331,195.389z M250.297,328.41v30.432
		c0,12.697-10.289,22.986-22.987,22.986c-12.698,0-22.987-10.289-22.987-22.986v-30.439c-10.019-7.185-16.604-18.865-16.604-32.131
		c0-21.865,17.72-39.6,39.599-39.6c21.864,0,39.583,17.734,39.583,39.6C266.901,309.545,260.316,321.218,250.297,328.41z
		 M278.395,195.389H176.226v-83.006c0-28.165,22.919-51.084,51.084-51.084s51.085,22.919,51.085,51.084V195.389z"/>
</g>
<g>
</g>
<g>
</g>
<g>
</g>
<g>
</g>
<g>
</g>
<g>
</g>
<g>
</g>
<g>
</g>
<g>
</g>
<g>
</g>
<g>
</g>
<g>
</g>
<g>
</g>
<g>
</g>
<g>
</g>
</svg>
