<?xml version="1.0" encoding="UTF-8" standalone="no"?>
<!-- Created with Inkscape (http://www.inkscape.org/) -->

<svg
   xmlns:dc="http://purl.org/dc/elements/1.1/"
   xmlns:cc="http://creativecommons.org/ns#"
   xmlns:rdf="http://www.w3.org/1999/02/22-rdf-syntax-ns#"
   xmlns:svg="http://www.w3.org/2000/svg"
   xmlns="http://www.w3.org/2000/svg"
   xmlns:sodipodi="http://sodipodi.sourceforge.net/DTD/sodipodi-0.dtd"
   xmlns:inkscape="http://www.inkscape.org/namespaces/inkscape"
   width="94.209999"
   height="95.099998"
   id="svg6863"
   version="1.1"
   inkscape:version="0.48.4 r9939"
   sodipodi:docname="Nuevo documento 27">
  <defs
     id="defs6865" />
  <sodipodi:namedview
     id="base"
     pagecolor="#ffffff"
     bordercolor="#666666"
     borderopacity="1.0"
     inkscape:pageopacity="0.0"
     inkscape:pageshadow="2"
     inkscape:zoom="1.4"
     inkscape:cx="-8.5759022"
     inkscape:cy="38.976586"
     inkscape:document-units="px"
     inkscape:current-layer="layer1"
     showgrid="false"
     fit-margin-top="0"
     fit-margin-left="0"
     fit-margin-right="0"
     fit-margin-bottom="0"
     inkscape:window-width="503"
     inkscape:window-height="421"
     inkscape:window-x="48"
     inkscape:window-y="48"
     inkscape:window-maximized="0" />
  <metadata
     id="metadata6868">
    <rdf:RDF>
      <cc:Work
         rdf:about="">
        <dc:format>image/svg+xml</dc:format>
        <dc:type
           rdf:resource="http://purl.org/dc/dcmitype/StillImage" />
        <dc:title></dc:title>
      </cc:Work>
    </rdf:RDF>
  </metadata>
  <g
     inkscape:label="Capa 1"
     inkscape:groupmode="layer"
     id="layer1"
     transform="translate(-478.60929,-453.38361)">
    <path
       style="fill:#000000;fill-rule:evenodd"
       inkscape:connector-curvature="0"
       d="m 501.07929,502.33361 c 0,0 0,0 0,-0.01 -0.04,-0.14 -0.12,-0.24 -0.22,-0.24 -0.11,0 -0.19,0.1 -0.23,0.24 0,0.01 0,0.01 0,0.01 -0.18,0.82 -0.3,1.69 -0.39,2.81 -0.07,0.96 -0.11,1.89 -0.1,2.77 0,0.91 0.03,1.84 0.1,2.78 0.09,1.13 0.21,1.99 0.39,2.81 0,0.01 0,0.01 0,0.01 0.02,0.06 0.04,0.12 0.08,0.16 0,0.01 0.01,0.01 0.02,0.02 0.03,0.04 0.07,0.06 0.12,0.06 0.05,0 0.09,-0.02 0.13,-0.06 0.01,-0.01 0.01,-0.01 0.02,-0.02 0.03,-0.04 0.06,-0.09 0.07,-0.16 0,0 0.01,0 0.01,-0.01 0.17,-0.82 0.29,-1.68 0.38,-2.81 0.07,-0.94 0.11,-1.87 0.11,-2.77 0,-0.89 -0.04,-1.82 -0.11,-2.78 -0.08,-1.12 -0.2,-1.99 -0.38,-2.81 l 0,0 z m 0,0"
       id="path86" />
    <path
       style="fill:#000000;fill-rule:evenodd"
       inkscape:connector-curvature="0"
       d="m 498.00929,505.26361 -0.01,0 c -0.02,-0.08 -0.07,-0.15 -0.13,-0.15 -0.06,0 -0.11,0.07 -0.13,0.15 l 0,0 c -0.11,0.49 -0.18,0.99 -0.23,1.65 -0.04,0.56 -0.06,1.11 -0.06,1.63 0,0.53 0.02,1.07 0.06,1.63 0.05,0.66 0.12,1.17 0.23,1.65 l 0,0 c 0.01,0.04 0.02,0.07 0.04,0.09 0.01,0.01 0.01,0.01 0.02,0.02 0.02,0.02 0.04,0.04 0.07,0.04 0.03,0 0.05,-0.02 0.07,-0.04 0.01,-0.01 0.01,-0.01 0.01,-0.02 0.02,-0.02 0.04,-0.05 0.05,-0.09 l 0,0 c 0.11,-0.49 0.17,-0.99 0.22,-1.65 0.05,-0.55 0.07,-1.1 0.07,-1.63 0,-0.52 -0.02,-1.07 -0.07,-1.63 -0.04,-0.66 -0.11,-1.16 -0.21,-1.65 l 0,0 z m 0,0"
       id="path88" />
    <path
       style="fill:#000000;fill-rule:evenodd"
       inkscape:connector-curvature="0"
       d="m 504.25929,500.09361 c 0,0 -0.01,0 -0.01,-0.01 -0.05,-0.19 -0.17,-0.33 -0.31,-0.33 -0.15,0 -0.27,0.14 -0.32,0.33 0,0.01 0,0.01 0,0.01 -0.25,1.16 -0.42,2.37 -0.54,3.94 -0.1,1.35 -0.15,2.66 -0.15,3.89 0,1.26 0.05,2.57 0.15,3.89 0.12,1.57 0.29,2.78 0.54,3.93 0,0 0,0.01 0,0.02 0.02,0.09 0.06,0.16 0.11,0.21 0.01,0.02 0.02,0.02 0.03,0.04 0.05,0.05 0.11,0.08 0.18,0.08 0.06,0 0.12,-0.03 0.17,-0.08 0.01,-0.02 0.02,-0.02 0.04,-0.04 0.04,-0.05 0.08,-0.12 0.1,-0.21 0,-0.01 0.01,-0.02 0.01,-0.02 0.25,-1.15 0.41,-2.36 0.53,-3.93 0.11,-1.32 0.16,-2.63 0.15,-3.89 0.01,-1.23 -0.04,-2.54 -0.14,-3.89 -0.13,-1.57 -0.29,-2.78 -0.54,-3.94 l 0,0 z m 0,0"
       id="path90" />
    <path
       style="fill:#000000;fill-rule:evenodd"
       inkscape:connector-curvature="0"
       d="m 507.68929,499.10361 c 0,-0.01 0,-0.01 0,-0.02 -0.06,-0.21 -0.19,-0.37 -0.35,-0.37 -0.16,0 -0.3,0.16 -0.35,0.37 0,0.01 -0.01,0.01 -0.01,0.02 -0.28,1.27 -0.46,2.62 -0.59,4.37 -0.12,1.49 -0.17,2.95 -0.17,4.32 0,1.4 0.05,2.85 0.17,4.32 0.13,1.74 0.32,3.1 0.59,4.37 0,0 0.01,0.01 0.01,0.01 0.02,0.1 0.06,0.18 0.12,0.24 0.01,0.02 0.02,0.03 0.03,0.04 0.06,0.06 0.12,0.1 0.2,0.1 0.07,0 0.14,-0.04 0.19,-0.1 0.02,-0.01 0.03,-0.02 0.04,-0.04 0.05,-0.06 0.09,-0.14 0.12,-0.24 0,0 0,-0.01 0,-0.01 0.28,-1.28 0.46,-2.63 0.6,-4.37 0.11,-1.47 0.17,-2.92 0.16,-4.32 0.01,-1.37 -0.05,-2.83 -0.16,-4.32 -0.13,-1.75 -0.32,-3.1 -0.6,-4.37 l 0,0 z m 0,0"
       id="path92" />
    <path
       style="fill:#000000;fill-rule:evenodd"
       inkscape:connector-curvature="0"
       d="m 511.38929,494.53361 c 0,-0.01 -0.01,-0.01 -0.01,-0.02 -0.07,-0.27 -0.24,-0.47 -0.44,-0.47 -0.2,0 -0.37,0.2 -0.44,0.47 0,0.01 0,0.01 -0.01,0.02 -0.35,1.6 -0.58,3.3 -0.75,5.49 -0.14,1.88 -0.21,3.71 -0.2,5.43 -0.01,1.76 0.06,3.59 0.21,5.44 0.17,2.19 0.4,3.89 0.74,5.49 0,0.01 0.01,0.01 0.01,0.02 0.03,0.12 0.08,0.23 0.15,0.3 0.01,0.03 0.03,0.03 0.04,0.05 0.07,0.07 0.16,0.12 0.25,0.12 0.09,0 0.17,-0.05 0.24,-0.12 0.02,-0.02 0.03,-0.02 0.05,-0.05 0.06,-0.07 0.12,-0.18 0.15,-0.3 0,-0.01 0.01,-0.01 0.01,-0.02 0.34,-1.6 0.57,-3.3 0.74,-5.49 0.14,-1.85 0.22,-3.68 0.22,-5.43 0,-1.73 -0.07,-3.56 -0.21,-5.44 -0.17,-2.19 -0.4,-3.89 -0.75,-5.49 l 0,0 z m 0,0"
       id="path94" />
    <path
       style="fill:#000000;fill-rule:evenodd"
       inkscape:connector-curvature="0"
       d="m 543.23929,493.70361 c -2.12,-5.15 -7.15,-8.78 -13.03,-8.78 -4.86,0 -9.14,2.49 -11.68,6.26 l 0,25.69 0.62,0 27.63,0 c 1.93,0 2.91,-1.18 2.91,-1.18 2.59,-2.32 4.22,-5.7 4.22,-9.46 0,-6.36 -4.63,-11.6 -10.67,-12.53 l 0,0 z m 0,0"
       id="path96" />
    <path
       style="fill:#000000;fill-rule:evenodd"
       inkscape:connector-curvature="0"
       d="m 515.42929,491.69361 c 0,-0.01 -0.01,-0.02 -0.01,-0.03 -0.07,-0.3 -0.26,-0.52 -0.49,-0.52 -0.23,0 -0.42,0.22 -0.49,0.52 0,0.01 -0.01,0.02 -0.01,0.03 -0.39,1.8 -0.65,3.71 -0.85,6.18 -0.16,2.11 -0.24,4.16 -0.23,6.1 0,1.99 0.08,4.04 0.24,6.12 0.19,2.47 0.45,4.38 0.84,6.18 0,0 0.01,0.01 0.01,0.02 0.03,0.14 0.09,0.25 0.16,0.34 0.02,0.03 0.04,0.03 0.06,0.06 0.08,0.07 0.17,0.13 0.27,0.13 0.11,0 0.2,-0.06 0.28,-0.13 0.02,-0.03 0.03,-0.03 0.05,-0.06 0.07,-0.09 0.13,-0.2 0.16,-0.34 0,-0.01 0.01,-0.02 0.01,-0.02 0.39,-1.8 0.65,-3.71 0.84,-6.18 0.16,-2.08 0.24,-4.13 0.24,-6.1 0.01,-1.95 -0.07,-4.01 -0.23,-6.12 -0.2,-2.48 -0.46,-4.38 -0.85,-6.18 l 0,0 z m 0,0"
       id="path98" />
  </g>
</svg>
