<?xml version="1.0" encoding="UTF-8" standalone="no"?>
<!-- Created with Inkscape (http://www.inkscape.org/) -->

<svg
   xmlns:dc="http://purl.org/dc/elements/1.1/"
   xmlns:cc="http://creativecommons.org/ns#"
   xmlns:rdf="http://www.w3.org/1999/02/22-rdf-syntax-ns#"
   xmlns:svg="http://www.w3.org/2000/svg"
   xmlns="http://www.w3.org/2000/svg"
   xmlns:sodipodi="http://sodipodi.sourceforge.net/DTD/sodipodi-0.dtd"
   xmlns:inkscape="http://www.inkscape.org/namespaces/inkscape"
   width="94.209999"
   height="95.099998"
   id="svg3682"
   version="1.1"
   inkscape:version="0.48.4 r9939"
   sodipodi:docname="spotify.svg">
  <defs
     id="defs3684" />
  <sodipodi:namedview
     id="base"
     pagecolor="#ffffff"
     bordercolor="#666666"
     borderopacity="1.0"
     inkscape:pageopacity="0.0"
     inkscape:pageshadow="2"
     inkscape:zoom="1.4"
     inkscape:cx="148.86308"
     inkscape:cy="54.90452"
     inkscape:document-units="px"
     inkscape:current-layer="layer1"
     showgrid="false"
     inkscape:window-width="503"
     inkscape:window-height="421"
     inkscape:window-x="819"
     inkscape:window-y="75"
     inkscape:window-maximized="0"
     borderlayer="true"
     fit-margin-top="0"
     fit-margin-left="0"
     fit-margin-right="0"
     fit-margin-bottom="0" />
  <metadata
     id="metadata3687">
    <rdf:RDF>
      <cc:Work
         rdf:about="">
        <dc:format>image/svg+xml</dc:format>
        <dc:type
           rdf:resource="http://purl.org/dc/dcmitype/StillImage" />
        <dc:title />
      </cc:Work>
    </rdf:RDF>
  </metadata>
  <g
     inkscape:label="Capa 1"
     inkscape:groupmode="layer"
     id="layer1"
     transform="translate(-190.03786,-130.52647)">
    <path
       style="fill:#000000;fill-rule:evenodd"
       inkscape:connector-curvature="0"
       d="m 231.94786,161.77647 c 10.26,0 21.06,2.16 28.95,6.89 1.06,0.62 1.8,1.55 1.8,3.25 0,1.95 -1.53,3.35 -3.3,3.35 -0.71,0 -1.13,-0.18 -1.8,-0.55 -6.32,-3.88 -16.14,-6.02 -25.63,-6.02 -4.74,0 -9.56,0.5 -13.96,1.72 -0.51,0.13 -1.15,0.39 -1.8,0.39 -1.86,0 -3.29,-1.51 -3.29,-3.41 0,-1.95 1.18,-3.04 2.45,-3.42 4.98,-1.5 10.54,-2.2 16.58,-2.2 z m -0.71,12.28 c 9.15,0 18,2.33 24.96,6.59 1.16,0.69 1.59,1.55 1.59,2.83 0,1.54 -1.2,2.79 -2.72,2.79 -0.76,0 -1.24,-0.31 -1.75,-0.61 -5.69,-3.46 -13.57,-5.75 -22.2,-5.75 -4.42,0 -8.24,0.63 -11.4,1.5 -0.68,0.19 -1.07,0.39 -1.7,0.39 -1.51,0 -2.73,-1.25 -2.73,-2.8 0,-1.52 0.72,-2.57 2.17,-2.98 3.93,-1.11 7.94,-1.96 13.78,-1.96 z m 0.48,11.68 c 7.65,0 14.46,1.79 20.33,5.39 0.87,0.52 1.38,1.05 1.38,2.37 0,1.29 -1.02,2.24 -2.17,2.24 -0.57,0 -0.95,-0.2 -1.48,-0.53 -5.07,-3.14 -11.38,-4.78 -18.08,-4.78 -3.74,0 -7.51,0.49 -11.03,1.23 -0.57,0.13 -1.29,0.36 -1.72,0.36 -1.33,0 -2.21,-1.08 -2.21,-2.25 0,-1.5 0.85,-2.25 1.9,-2.45 4.32,-1.01 8.62,-1.58 13.08,-1.58 z m 0,0"
       id="path82" />
  </g>
</svg>
