<?xml version="1.0" encoding="UTF-8" standalone="no"?>
<!-- Created with Inkscape (http://www.inkscape.org/) -->

<svg
   xmlns:dc="http://purl.org/dc/elements/1.1/"
   xmlns:cc="http://creativecommons.org/ns#"
   xmlns:rdf="http://www.w3.org/1999/02/22-rdf-syntax-ns#"
   xmlns:svg="http://www.w3.org/2000/svg"
   xmlns="http://www.w3.org/2000/svg"
   xmlns:sodipodi="http://sodipodi.sourceforge.net/DTD/sodipodi-0.dtd"
   xmlns:inkscape="http://www.inkscape.org/namespaces/inkscape"
   width="94.209999"
   height="95.099998"
   id="svg3682"
   version="1.1"
   inkscape:version="0.48.4 r9939"
   sodipodi:docname="twitter.svg">
  <defs
     id="defs3684" />
  <sodipodi:namedview
     id="base"
     pagecolor="#ffffff"
     bordercolor="#666666"
     borderopacity="1.0"
     inkscape:pageopacity="0.0"
     inkscape:pageshadow="2"
     inkscape:zoom="0.7"
     inkscape:cx="-33.145808"
     inkscape:cy="27.773555"
     inkscape:document-units="px"
     inkscape:current-layer="layer1"
     showgrid="false"
     fit-margin-top="0"
     fit-margin-left="0"
     fit-margin-right="0"
     fit-margin-bottom="0"
     inkscape:window-width="503"
     inkscape:window-height="421"
     inkscape:window-x="48"
     inkscape:window-y="48"
     inkscape:window-maximized="0" />
  <metadata
     id="metadata3687">
    <rdf:RDF>
      <cc:Work
         rdf:about="">
        <dc:format>image/svg+xml</dc:format>
        <dc:type
           rdf:resource="http://purl.org/dc/dcmitype/StillImage" />
        <dc:title />
      </cc:Work>
    </rdf:RDF>
  </metadata>
  <g
     inkscape:label="Capa 1"
     inkscape:groupmode="layer"
     id="layer1"
     transform="translate(-467.18071,-476.24075)">
    <path
       style="fill:#000000;fill-rule:evenodd"
       inkscape:connector-curvature="0"
       d="m 526.23071,505.18075 c -5.62,0 -10.18,4.53 -10.18,10.12 0,0.79 0.09,1.57 0.26,2.31 -8.46,-0.42 -15.96,-4.45 -20.98,-10.57 -0.88,1.49 -1.38,3.23 -1.38,5.08 0,3.51 1.79,6.61 4.53,8.42 -1.67,-0.05 -3.24,-0.5 -4.62,-1.26 l 0,0.12 c 0,4.91 3.51,9 8.17,9.93 -0.85,0.23 -1.75,0.35 -2.68,0.35 -0.66,0 -1.3,-0.06 -1.92,-0.18 1.3,4.02 5.06,6.94 9.51,7.03 -3.48,2.71 -7.87,4.33 -12.64,4.33 -0.82,0 -1.63,-0.05 -2.43,-0.14 4.51,2.87 9.86,4.54 15.61,4.54 18.73,0 28.97,-15.42 28.97,-28.79 0,-0.43 -0.01,-0.87 -0.03,-1.3 1.99,-1.43 3.71,-3.21 5.08,-5.24 -1.83,0.8 -3.79,1.35 -5.85,1.59 2.1,-1.25 3.72,-3.23 4.48,-5.6 -1.97,1.16 -4.15,2 -6.47,2.46 -1.86,-1.97 -4.5,-3.2 -7.43,-3.2"
       id="path62" />
  </g>
</svg>
