<?xml version="1.0" encoding="UTF-8" standalone="no"?>
<!-- Created with Inkscape (http://www.inkscape.org/) -->

<svg
   xmlns:dc="http://purl.org/dc/elements/1.1/"
   xmlns:cc="http://creativecommons.org/ns#"
   xmlns:rdf="http://www.w3.org/1999/02/22-rdf-syntax-ns#"
   xmlns:svg="http://www.w3.org/2000/svg"
   xmlns="http://www.w3.org/2000/svg"
   xmlns:sodipodi="http://sodipodi.sourceforge.net/DTD/sodipodi-0.dtd"
   xmlns:inkscape="http://www.inkscape.org/namespaces/inkscape"
   width="94.199997"
   height="95.089996"
   id="svg3571"
   version="1.1"
   inkscape:version="0.48.4 r9939"
   sodipodi:docname="web-site.svg">
  <defs
     id="defs3573" />
  <sodipodi:namedview
     id="base"
     pagecolor="#ffffff"
     bordercolor="#666666"
     borderopacity="1.0"
     inkscape:pageopacity="0.0"
     inkscape:pageshadow="2"
     inkscape:zoom="1.979899"
     inkscape:cx="95.306175"
     inkscape:cy="47.568549"
     inkscape:document-units="px"
     inkscape:current-layer="layer1"
     showgrid="false"
     fit-margin-top="0"
     fit-margin-left="0"
     fit-margin-right="0"
     fit-margin-bottom="0"
     inkscape:window-width="503"
     inkscape:window-height="421"
     inkscape:window-x="810"
     inkscape:window-y="150"
     inkscape:window-maximized="0" />
  <metadata
     id="metadata3576">
    <rdf:RDF>
      <cc:Work
         rdf:about="">
        <dc:format>image/svg+xml</dc:format>
        <dc:type
           rdf:resource="http://purl.org/dc/dcmitype/StillImage" />
        <dc:title />
      </cc:Work>
    </rdf:RDF>
  </metadata>
  <g
     inkscape:label="Capa 1"
     inkscape:groupmode="layer"
     id="layer1"
     transform="translate(-152.9,-353.38861)">
    <path
       style="fill:#000000;fill-rule:evenodd"
       inkscape:connector-curvature="0"
       d="m 178.35,374.30861 0,9.84 c 22.62,0 41.03,18.6 41.03,41.45 l 9.76,0 c 0,-28.27 -22.78,-51.29 -50.79,-51.29 l 0,0 z m 0,0"
       id="path66" />
    <path
       style="fill:#000000;fill-rule:evenodd"
       inkscape:connector-curvature="0"
       d="m 178.34,391.72861 0,9.84 c 6.34,0 12.3,2.5 16.79,7.04 4.49,4.52 6.96,10.57 6.96,16.99 l 9.79,0 c 0,-18.67 -15.05,-33.87 -33.54,-33.87 l 0,0 z m 0,0"
       id="path68" />
    <path
       style="fill:#000000;fill-rule:evenodd"
       inkscape:connector-curvature="0"
       d="m 185.1,411.91861 c -3.73,0 -6.77,3.07 -6.77,6.81 0,3.77 3.04,6.81 6.77,6.81 3.74,0 6.77,-3.04 6.77,-6.81 0,-3.73 -3.03,-6.81 -6.77,-6.81 l 0,0 z m 0,0"
       id="path70" />
  </g>
</svg>
