<?xml version="1.0" encoding="UTF-8" standalone="no"?>
<!-- Created with Inkscape (http://www.inkscape.org/) -->

<svg
   xmlns:dc="http://purl.org/dc/elements/1.1/"
   xmlns:cc="http://creativecommons.org/ns#"
   xmlns:rdf="http://www.w3.org/1999/02/22-rdf-syntax-ns#"
   xmlns:svg="http://www.w3.org/2000/svg"
   xmlns="http://www.w3.org/2000/svg"
   xmlns:sodipodi="http://sodipodi.sourceforge.net/DTD/sodipodi-0.dtd"
   xmlns:inkscape="http://www.inkscape.org/namespaces/inkscape"
   width="94.209999"
   height="95.099998"
   id="svg6821"
   version="1.1"
   inkscape:version="0.48.4 r9939"
   sodipodi:docname="Nuevo documento 25">
  <defs
     id="defs6823" />
  <sodipodi:namedview
     id="base"
     pagecolor="#ffffff"
     bordercolor="#666666"
     borderopacity="1.0"
     inkscape:pageopacity="0.0"
     inkscape:pageshadow="2"
     inkscape:zoom="0.7"
     inkscape:cx="-8.9851531"
     inkscape:cy="29.592721"
     inkscape:document-units="px"
     inkscape:current-layer="layer1"
     showgrid="false"
     fit-margin-top="0"
     fit-margin-left="0"
     fit-margin-right="0"
     fit-margin-bottom="0"
     inkscape:window-width="503"
     inkscape:window-height="421"
     inkscape:window-x="48"
     inkscape:window-y="48"
     inkscape:window-maximized="0" />
  <metadata
     id="metadata6826">
    <rdf:RDF>
      <cc:Work
         rdf:about="">
        <dc:format>image/svg+xml</dc:format>
        <dc:type
           rdf:resource="http://purl.org/dc/dcmitype/StillImage" />
        <dc:title></dc:title>
      </cc:Work>
    </rdf:RDF>
  </metadata>
  <g
     inkscape:label="Capa 1"
     inkscape:groupmode="layer"
     id="layer1"
     transform="translate(-427.18071,-299.0979)">
    <path
       style="fill:#000000;fill-rule:evenodd"
       inkscape:connector-curvature="0"
       d="m 489.18071,358.9979 -2.84,0 0.01,-1.67 c 0,-0.74 0.61,-1.34 1.34,-1.34 l 0.18,0 c 0.74,0 1.34,0.6 1.34,1.34 l -0.03,1.67 0,0 z m -10.64,-3.57 c -0.72,0 -1.31,0.49 -1.31,1.09 l 0,8.09 c 0,0.59 0.59,1.08 1.31,1.08 0.72,0 1.31,-0.49 1.31,-1.08 l 0,-8.09 c 0,-0.6 -0.59,-1.09 -1.31,-1.09 l 0,0 z m 17.28,-4.52 0,15.38 c 0,3.69 -3.17,6.71 -7.05,6.71 l -28.97,0 c -3.88,0 -7.05,-3.02 -7.05,-6.71 l 0,-15.38 c 0,-3.69 3.17,-6.71 7.05,-6.71 l 28.97,0 c 3.88,0 7.05,3.02 7.05,6.71 l 0,0 z m -34.09,17.05 0,-16.2 3.59,0 0,-2.4 -9.58,-0.02 0,2.36 2.99,0.01 0,16.25 3,0 0,0 z m 10.77,-13.79 -3,0 0,8.66 c 0,1.25 0.08,1.87 0,2.09 -0.25,0.68 -1.34,1.39 -1.77,0.08 -0.07,-0.23 -0.01,-0.93 -0.01,-2.11 l -0.01,-8.72 -2.98,0 0.01,8.58 c 0,1.31 -0.03,2.29 0.01,2.74 0.07,0.79 0.05,1.7 0.77,2.23 1.35,0.98 3.93,-0.15 4.58,-1.55 l -0.01,1.79 2.41,0 0,-13.79 0,0 z m 9.57,9.91 0,-7.2 c 0,-2.75 -2.04,-4.39 -4.8,-2.17 l 0.01,-5.35 -2.99,0 -0.01,18.48 2.46,-0.03 0.22,-1.15 c 3.14,2.91 5.12,0.91 5.11,-2.58 l 0,0 z m 9.38,-0.95 -2.25,0.01 c 0,0.09 0,0.19 0,0.31 l 0,1.26 c 0,0.68 -0.56,1.23 -1.23,1.23 l -0.44,0 c -0.68,0 -1.23,-0.55 -1.23,-1.23 l 0,-0.14 0,-1.39 0,-1.8 5.14,0 0,-1.95 c 0,-1.43 -0.03,-2.85 -0.15,-3.67 -0.37,-2.58 -3.96,-2.99 -5.77,-1.67 -0.57,0.41 -1.01,0.97 -1.26,1.71 -0.25,0.74 -0.38,1.75 -0.38,3.04 l 0,4.3 c 0,7.14 8.59,6.13 7.57,-0.01 l 0,0 z m -11.52,-23.32 c 0.15,0.38 0.39,0.69 0.72,0.92 0.32,0.23 0.73,0.34 1.22,0.34 0.44,0 0.82,-0.12 1.15,-0.36 0.33,-0.24 0.61,-0.6 0.84,-1.08 l -0.06,1.18 3.34,0 0,-14.33 -2.63,0 0,11.15 c 0,0.61 -0.49,1.1 -1.09,1.1 -0.6,0 -1.09,-0.49 -1.09,-1.1 l 0,-11.15 -2.75,0 0,9.67 c 0,1.23 0.03,2.05 0.06,2.47 0.04,0.41 0.13,0.81 0.29,1.19 l 0,0 z m -10.12,-8.09 c 0,-1.38 0.12,-2.45 0.34,-3.23 0.23,-0.77 0.64,-1.39 1.23,-1.86 0.59,-0.47 1.34,-0.7 2.26,-0.7 0.78,0 1.44,0.15 1.99,0.45 0.55,0.3 0.98,0.69 1.28,1.18 0.3,0.48 0.51,0.98 0.62,1.49 0.11,0.51 0.16,1.29 0.16,2.34 l 0,3.63 c 0,1.33 -0.05,2.31 -0.15,2.93 -0.1,0.62 -0.32,1.2 -0.66,1.74 -0.33,0.53 -0.76,0.93 -1.28,1.19 -0.53,0.26 -1.13,0.38 -1.81,0.38 -0.77,0 -1.41,-0.1 -1.93,-0.32 -0.53,-0.22 -0.94,-0.56 -1.24,-1 -0.29,-0.44 -0.5,-0.98 -0.62,-1.6 -0.13,-0.63 -0.19,-1.57 -0.19,-2.83 l 0,-3.79 0,0 z m 2.62,5.69 c 0,0.81 0.6,1.47 1.32,1.47 0.73,0 1.33,-0.66 1.33,-1.47 l 0,-7.63 c 0,-0.81 -0.6,-1.47 -1.33,-1.47 -0.72,0 -1.32,0.66 -1.32,1.47 l 0,7.63 0,0 z m -9.24,3.85 3.15,0 0,-10.99 3.72,-9.41 -3.44,0 -1.98,6.99 -2.01,-7.01 -3.4,0 3.96,9.44 0,10.98 0,0 z m 0,0"
       id="path112" />
  </g>
</svg>
