<?xml version="1.0" standalone="no"?>
<!DOCTYPE svg PUBLIC "-//W3C//DTD SVG 1.1//EN" "http://www.w3.org/Graphics/SVG/1.1/DTD/svg11.dtd" >
<svg xmlns="http://www.w3.org/2000/svg" xmlns:xlink="http://www.w3.org/1999/xlink" version="1.1">
<metadata></metadata>
<defs>
<font id="san_francisco_textbold" horiz-adv-x="1346" >
<font-face units-per-em="2048" ascent="1638" descent="-410" />
<missing-glyph horiz-adv-x="493" />
<glyph horiz-adv-x="0" />
<glyph unicode="&#xd;" horiz-adv-x="0" />
<glyph unicode=" "  horiz-adv-x="493" />
<glyph unicode="&#x09;" horiz-adv-x="493" />
<glyph unicode="&#xa0;" horiz-adv-x="493" />
<glyph unicode="!" horiz-adv-x="670" d="M135 152q0 79 55.5 127t144.5 48t144.5 -48t55.5 -127t-54 -126t-146 -47q-89 0 -144.5 47t-55.5 126zM169 1486h337l-38 -989h-264z" />
<glyph unicode="&#x22;" horiz-adv-x="1136" d="M131 1486h333l-39 -622h-254zM674 1486h333l-39 -622h-254z" />
<glyph unicode="#" horiz-adv-x="1402" d="M73 393l41 231h213l54 256h-204l42 229h208l75 377h233l-79 -377h239l75 377h231l-75 -377h223l-42 -229h-227l-52 -256h215l-42 -231h-219l-77 -393h-231l77 393h-237l-79 -393h-231l79 393h-210zM533 597h281l62 308h-281z" />
<glyph unicode="$" d="M108 431h258q6 -83 66.5 -141.5t166.5 -70.5v430l-89 21q-162 37 -266.5 138.5t-104.5 271.5q0 187 127 296.5t331 130.5v139h167v-141q100 -10 182 -45.5t141.5 -90t92.5 -128t35 -159.5h-253q-2 75 -55.5 132.5t-144.5 71.5v-406l91 -20q181 -40 285.5 -138t104.5 -279 q0 -191 -130.5 -307.5t-350.5 -137.5l2 -137h-169v135q-125 8 -220.5 48.5t-151.5 103t-85.5 133.5t-29.5 150zM404 1101q0 -125 156 -175q23 -8 39 -12v372q-87 -10 -141 -58t-54 -127zM762 219q98 8 157 61t59 138q0 35 -10.5 64.5t-33 53.5t-60 42.5t-87.5 33.5 q-15 4 -25 6v-399z" />
<glyph unicode="%" horiz-adv-x="1563" d="M27 1111v34q0 156 87.5 258t235.5 102t235 -102t87 -260v-36q0 -152 -87.5 -257t-239.5 -105q-148 0 -233 103t-85 263zM96 -2l605 785l539 703h227l-597 -768l-547 -720h-227zM219 1122q0 -65 16.5 -110.5t44.5 -68.5t68 -23q60 0 95.5 52t35.5 148v12q0 96 -34.5 148 t-94.5 52q-62 0 -96.5 -52t-34.5 -146v-12zM899 345v36q0 156 87.5 258t235.5 102t235 -102t87 -260v-34q0 -154 -87.5 -259t-238.5 -105q-98 0 -171 48t-110.5 130t-37.5 186zM1091 358q0 -98 35 -150t94 -52q60 0 95.5 52t35.5 148v12q0 65 -17 109.5t-45 67.5t-67 23 q-62 0 -96.5 -52t-34.5 -148v-10z" />
<glyph unicode="&#x26;" horiz-adv-x="1538" d="M100 387q0 133 70.5 226t202.5 167q33 17 68 36q-60 62 -96.5 108t-62.5 106.5t-26 122.5q0 152 120.5 249t299.5 97q108 0 201 -37.5t152.5 -117t59.5 -185.5q0 -131 -81.5 -220.5t-218.5 -164.5l283 -297q52 92 52 276v82h248v-98q0 -279 -125 -448l274 -289h-333 l-114 121q-179 -152 -456 -152q-235 0 -376.5 113.5t-141.5 304.5zM379 410q0 -102 77 -159t191 -57q75 0 150 25t121 74l-339 361q-23 -11 -42 -21q-158 -85 -158 -223zM512 1136q0 -50 30 -97.5t107 -122.5q62 31 101 60t65 71t26 89q0 48 -22 84.5t-58.5 55.5t-84.5 19 q-71 0 -117.5 -45t-46.5 -114z" />
<glyph unicode="'" horiz-adv-x="595" d="M131 1486h333l-39 -622h-254z" />
<glyph unicode="(" horiz-adv-x="788" d="M146 616q0 171 24 310.5t71.5 245.5t88.5 169.5t103 142.5h281q-37 -44 -77 -113.5t-82.5 -175.5t-69.5 -258t-27 -319q0 -135 18.5 -262t41.5 -210.5t65.5 -181t63.5 -136t65 -113.5h-289q-277 343 -277 901z" />
<glyph unicode=")" horiz-adv-x="788" d="M77 1484h279q62 -79 103 -142.5t89.5 -169.5t72.5 -245.5t24 -310.5q0 -558 -279 -901h-287q52 89 81 149.5t76 179t71 263.5t24 311q0 167 -27 319t-70 258t-81.5 175.5t-75.5 113.5z" />
<glyph unicode="*" horiz-adv-x="1069" d="M94 949l314 127l-314 127l106 191l270 -208l-43 335h214l-46 -335l271 208l106 -191l-314 -127l314 -127l-106 -191l-269 204l44 -331h-214l41 331l-268 -204z" />
<glyph unicode="+" d="M117 466v273h426v437h265v-437h426v-273h-426v-451h-265v451h-426z" />
<glyph unicode="," horiz-adv-x="566" d="M31 -370l119 682h306l-185 -682h-240z" />
<glyph unicode="-" horiz-adv-x="913" d="M114 468v283h685v-283h-685z" />
<glyph unicode="." horiz-adv-x="682" d="M144 173q0 87 56 141t141 54t141.5 -54t56.5 -142.5t-56 -140.5t-142 -52q-85 0 -141 53.5t-56 140.5z" />
<glyph unicode="/" horiz-adv-x="801" d="M17 -312l499 1877h275l-500 -1877h-274z" />
<glyph unicode="0" horiz-adv-x="1406" d="M131 710v68q0 333 154 534t423 201q181 0 310 -92.5t194.5 -257t65.5 -385.5v-68q0 -210 -63.5 -374.5t-195.5 -264.5t-318 -100q-268 0 -419 202t-151 537zM447 710q0 -114 19 -205t52.5 -149t80 -88.5t104.5 -30.5q119 0 189 123t70 350v66q0 229 -69 350t-188.5 121 t-188.5 -121t-69 -350v-66z" />
<glyph unicode="1" horiz-adv-x="1069" d="M144 941v295l349 250h315v-1486h-315v1178h-14z" />
<glyph unicode="2" horiz-adv-x="1311" d="M137 1030v19q0 56 15 112.5t42 108.5t70.5 96.5t98.5 77t130 51t161 18.5q233 0 374.5 -118.5t141.5 -299.5q0 -71 -18 -132.5t-57.5 -119.5t-69.5 -93.5t-88 -98.5q-19 -21 -27 -29l-327 -343v-15h612v-264h-1041v204l541 566q37 40 59 66t50.5 65.5t42 79t13.5 83.5 q0 81 -60.5 136t-152.5 55q-65 0 -113.5 -29t-73.5 -75t-25 -100v-21h-298z" />
<glyph unicode="3" horiz-adv-x="1340" d="M106 404h287q4 -50 37.5 -90.5t91 -64.5t127.5 -24q117 0 187.5 58t70.5 152q-2 89 -69.5 147.5t-181.5 58.5h-167v248h158q98 0 159.5 54t61.5 135q0 83 -62.5 135t-158 52t-157 -53t-67.5 -126h-292q8 189 146.5 308t380.5 119q156 0 273.5 -50t180 -138.5t62.5 -200.5 q2 -75 -25 -138.5t-70 -103t-89.5 -63.5t-88.5 -30v-19q54 -4 107 -28t101 -64.5t78.5 -108t32.5 -151.5q0 -142 -79.5 -244.5t-207.5 -152.5t-284 -50q-250 0 -394.5 125t-148.5 308z" />
<glyph unicode="4" horiz-adv-x="1384" d="M104 264v265q60 114 139.5 252.5t126 216.5t158 261t138.5 227h452v-962h177v-260h-177v-264h-296v264h-718zM385 524h437v721h-14q-273 -427 -423 -712v-9z" />
<glyph unicode="5" horiz-adv-x="1365" d="M150 393h287q15 -77 86.5 -121.5t165.5 -44.5q108 0 184 73t76 191q0 56 -21 104t-55 79.5t-82 50t-100 18.5q-87 0 -146.5 -38.5t-88.5 -88.5h-275l60 872h927v-262h-677l-31 -366h17q27 46 106 86.5t191 40.5q202 0 340.5 -129.5t138.5 -353.5q0 -160 -72 -281 t-200 -186.5t-296 -65.5q-233 0 -381 120.5t-154 301.5z" />
<glyph unicode="6" horiz-adv-x="1400" d="M131 712q0 393 160.5 597t445.5 204q119 0 216.5 -35.5t158 -91.5t95 -122.5t38.5 -135.5h-298q-19 54 -74 91.5t-140 37.5q-142 0 -223 -138.5t-75 -348.5h19q23 54 66.5 98t118.5 74t169 30q123 0 226.5 -52t172.5 -162.5t69 -260.5q0 -246 -155 -385t-401 -139 q-327 0 -476 250q-112 183 -113 489zM468 483q0 -77 34.5 -135.5t90.5 -89.5t127 -31q73 0 129 29t89.5 87.5t33.5 139.5q0 77 -34.5 135t-90.5 86.5t-125 28.5q-112 0 -183 -70t-71 -180z" />
<glyph unicode="7" horiz-adv-x="1257" d="M114 1222v264h1039v-268l-601 -1218h-331l618 1209v13h-725z" />
<glyph unicode="8" horiz-adv-x="1415" d="M123 410q0 83 29 152t77 111.5t100 67.5t108 35v15q-110 35 -183 116.5t-73 214.5q0 171 145.5 281t383.5 110q156 0 275.5 -51t184 -139.5t64.5 -200.5q0 -133 -72.5 -215.5t-181.5 -115.5v-15q54 -10 106 -35t101 -67.5t77 -110.5t28 -153q0 -196 -160 -317.5 t-426 -121.5q-264 0 -423.5 121.5t-159.5 317.5zM437 433q0 -102 77 -166.5t196 -64.5q117 0 193.5 64.5t76.5 166.5t-77 167.5t-193 65.5q-119 0 -196 -65.5t-77 -167.5zM483 1081.5q0 -88.5 64.5 -145t161 -56.5t161.5 56.5t65 145t-63.5 144.5t-162.5 56t-162.5 -56 t-63.5 -144.5z" />
<glyph unicode="9" horiz-adv-x="1398" d="M127 999q0 237 156 376.5t400 139.5q125 0 225.5 -39.5t184 -125t129.5 -235t46 -353.5q0 -387 -153 -588t-451 -201q-119 0 -214.5 33.5t-155 87.5t-93 118t-39.5 133h298q6 -23 23 -43.5t43 -37t63 -27t79 -10.5q158 0 234 135t70 350h-19q-31 -85 -121.5 -142.5 t-225.5 -57.5q-200 0 -339.5 128t-139.5 359zM429 1005q0 -79 34 -137t89.5 -87.5t126.5 -29.5q108 0 178.5 67.5t70.5 186.5q0 79 -32 138.5t-89.5 89.5t-130.5 30q-108 0 -177.5 -69.5t-69.5 -188.5z" />
<glyph unicode=":" horiz-adv-x="703" d="M154 173q0 87 56 141t140 54q87 0 144.5 -54t57.5 -141q0 -89 -57.5 -141.5t-144.5 -52.5q-83 0 -139.5 53.5t-56.5 140.5zM154 882q0 87 56 141.5t140 54.5q29 0 55 -6t48 -17.5t40.5 -29.5t31 -39.5t20 -47.5t7.5 -56q0 -89 -57.5 -141t-144.5 -52q-83 0 -139.5 53 t-56.5 140z" />
<glyph unicode=";" horiz-adv-x="699" d="M75 -445l121 703h318l-191 -703h-248zM158 885q0 89 56.5 142t141.5 53t142.5 -54t57.5 -141q0 -35 -10.5 -66.5t-28 -54.5t-42.5 -39.5t-55.5 -25t-63.5 -8.5q-85 0 -141.5 53.5t-56.5 140.5z" />
<glyph unicode="&#x3c;" d="M162 479v200l1016 557v-318l-660 -327v-14l660 -321v-312z" />
<glyph unicode="=" d="M158 235v252h1033v-252h-1033zM158 716v250h1033v-250h-1033z" />
<glyph unicode="&#x3e;" d="M162 -56v312l662 321v14l-662 327v318l1016 -557v-200z" />
<glyph unicode="?" horiz-adv-x="1123" d="M71 1068q-4 117 37.5 205t114.5 139t160 77t187 26q206 0 345.5 -105t139.5 -299q0 -56 -13.5 -104t-31 -80t-51 -65.5t-57.5 -53t-63 -46.5q-60 -42 -84 -60.5t-51.5 -48t-34.5 -59.5t-7 -74v-54h-275l-2 58q-15 216 192 356q92 62 130 105t38 110q0 83 -56 125.5 t-137 42.5q-62 0 -108 -26t-68 -69.5t-24 -99.5h-281zM335 152q0 79 54 127t144 48q92 0 147 -48t55 -127t-55.5 -126t-146.5 -47q-87 0 -142.5 47t-55.5 126z" />
<glyph unicode="@" horiz-adv-x="1925" d="M129 545v54q0 383 238.5 617.5t619.5 234.5h8q191 0 348.5 -61.5t258.5 -165.5t155 -239.5t54 -285.5v-52q0 -223 -105 -362t-284 -139q-102 0 -177 42.5t-96 115.5h-8q-21 -73 -91 -115.5t-161 -42.5q-142 0 -224 95.5t-82 262.5v125q0 158 83 253.5t227 95.5 q96 0 155 -45.5t76 -108.5h8v138h206v-544q0 -50 31.5 -79t81.5 -29q71 0 120.5 89.5t49.5 262.5v31q0 246 -170.5 414.5t-453.5 168.5h-10q-296 0 -480 -186.5t-184 -496.5v-41q0 -135 35 -246.5t95.5 -188.5t144 -130.5t177 -77t197.5 -23.5h10q200 0 308 47v-177 q-98 -44 -318 -43h-10q-179 0 -330 54t-263.5 157t-176 262t-63.5 359zM808 537q0 -206 151 -206q152 0 152 193v90q0 94 -43.5 139.5t-110.5 45.5q-69 0 -109 -51t-40 -153v-58z" />
<glyph unicode="A" horiz-adv-x="1440" d="M42 0l493 1486h375l489 -1486h-338l-108 360h-485l-110 -360h-316zM531 601h360l-171 581h-17z" />
<glyph unicode="B" horiz-adv-x="1434" d="M181 0v1486h633q202 0 323.5 -97t121.5 -267q0 -135 -71.5 -218.5t-186.5 -108.5v-12q94 -8 166.5 -50t119.5 -123t47 -190q0 -198 -145.5 -309t-372.5 -111h-635zM493 239h210q310 0 311 204q0 102 -68 157.5t-188 55.5h-265v-417zM493 876h188q270 0 270 189 q0 88 -58 135t-154 47h-246v-371z" />
<glyph unicode="C" horiz-adv-x="1454" d="M123 654v174q0 321 166.5 503t461.5 182q268 0 429.5 -151t161.5 -378v-35h-301q0 121 -77 205t-211 84q-144 0 -228 -106t-84 -304v-174q0 -200 83.5 -303t231.5 -103q135 0 210 78t75 198h301v-35q0 -216 -159 -367t-434 -151q-296 0 -461 181t-165 502z" />
<glyph unicode="D" horiz-adv-x="1511" d="M181 0v1486h558q175 0 305 -53t208 -153t115.5 -232t37.5 -300.5t-37.5 -302t-115.5 -235.5t-208 -156t-305 -54h-558zM497 264h196q191 0 289 108.5t98 368.5q0 481 -387 481h-196v-958z" />
<glyph unicode="E" horiz-adv-x="1288" d="M181 0v1486h970v-264h-658v-350h620v-246h-620v-362h658v-264h-970z" />
<glyph unicode="F" horiz-adv-x="1227" d="M181 0v1486h962v-268h-646v-383h589v-261h-589v-574h-316z" />
<glyph unicode="G" horiz-adv-x="1481" d="M123 656v183q0 308 170.5 491t472.5 183q142 0 256 -42.5t185 -115.5t110.5 -163.5t41.5 -188.5h-306q-15 110 -94 173.5t-197 63.5q-148 0 -235.5 -102t-87.5 -301v-179q0 -189 79 -300.5t246 -111.5q135 0 217.5 71.5t82.5 175.5v79h-292v238h589v-294 q0 -77 -18.5 -151t-64.5 -145.5t-113.5 -127t-171.5 -88.5t-233 -33q-162 0 -286 52t-200 145.5t-113.5 216.5t-37.5 271z" />
<glyph unicode="H" horiz-adv-x="1592" d="M181 0v1486h316v-595h600v595h314v-1486h-314v622h-600v-622h-316z" />
<glyph unicode="I" horiz-adv-x="678" d="M181 0v1486h316v-1486h-316z" />
<glyph unicode="J" horiz-adv-x="1234" d="M56 452h304q2 -87 55 -137.5t134 -50.5q200 0 200 219v1003h317v-999q0 -254 -137.5 -385t-374.5 -131q-239 0 -368.5 138.5t-129.5 342.5z" />
<glyph unicode="K" horiz-adv-x="1442" d="M181 0v1486h316v-647h15l545 647h344l-527 -643l548 -843h-377l-402 624l-146 -162v-462h-316z" />
<glyph unicode="L" horiz-adv-x="1171" d="M181 0v1486h316v-1209h621v-277h-937z" />
<glyph unicode="M" horiz-adv-x="1841" d="M185 0v1486h323l408 -901h12l408 901h323v-1486h-285v953h-15l-339 -747h-198l-341 747h-15v-953h-281z" />
<glyph unicode="N" horiz-adv-x="1563" d="M181 0v1486h258l635 -930h12v930h296v-1486h-256l-635 937h-12v-937h-298z" />
<glyph unicode="O" horiz-adv-x="1533" d="M123 647v181q0 318 171.5 501.5t473.5 183.5t472.5 -184t170.5 -501v-181q0 -314 -171.5 -495t-473.5 -181t-472.5 181t-170.5 495zM443 647q0 -198 87.5 -300.5t235.5 -102.5t236.5 103t88.5 300v186q0 198 -88.5 304t-236.5 106q-146 0 -234.5 -106t-88.5 -304v-186z " />
<glyph unicode="P" horiz-adv-x="1369" d="M181 0v1486h606q237 0 372.5 -143.5t135.5 -362.5q0 -221 -135.5 -361t-374.5 -140h-288v-479h-316zM495 728h167q154 0 234 58.5t80 193.5q0 79 -31 135.5t-87.5 85.5t-135.5 29h-227v-502z" />
<glyph unicode="Q" horiz-adv-x="1538" d="M125 654v176q0 314 175 498.5t470 184.5q296 0 470.5 -185t174.5 -498v-176q0 -337 -202 -523l186 -273h-308l-104 148q-104 -35 -217 -35q-296 0 -470.5 185.5t-174.5 497.5zM435 647q0 -204 89.5 -313t237.5 -113q44 0 81 12l-140 206h284l47 -58q71 104 71 266v186 q0 198 -92.5 305t-242.5 107t-242.5 -107t-92.5 -305v-186z" />
<glyph unicode="R" horiz-adv-x="1438" d="M181 0v1486h606q131 0 233 -36.5t166.5 -101t96.5 -151t32 -190.5q0 -71 -17.5 -133t-44.5 -108t-63.5 -82.5t-72 -58t-70.5 -36.5l300 -589h-352l-258 541h-246v-541h-310zM491 780h246q121 0 188.5 57.5t67.5 165.5q0 112 -70 172.5t-182 60.5h-250v-456z" />
<glyph unicode="S" horiz-adv-x="1379" d="M92 429h303q6 -85 84.5 -143.5t211.5 -58.5q85 0 146.5 24t91.5 65.5t30 97.5q0 71 -54 111.5t-170 67.5l-225 48q-81 19 -147.5 50t-121 80t-84.5 122t-30 164q0 144 76 249t202 157t286 52q246 0 401 -126t157 -321h-294q-6 81 -74.5 138t-191.5 57q-114 0 -181 -48.5 t-67 -130.5q0 -125 204 -166l225 -48q87 -19 155 -48t126 -77t89.5 -124t31.5 -176q0 -219 -160.5 -346.5t-435.5 -127.5q-106 0 -194.5 19.5t-151 53t-109 77t-73.5 95.5t-40.5 105.5t-15.5 107.5z" />
<glyph unicode="T" horiz-adv-x="1234" d="M44 1213v273h1149v-273h-419v-1213h-314v1213h-416z" />
<glyph unicode="U" horiz-adv-x="1544" d="M167 516v970h314v-937q0 -144 79 -221.5t212 -77.5t213.5 78t80.5 221v937h314v-972q0 -246 -165.5 -394.5t-441.5 -148.5t-441 150t-165 395z" />
<glyph unicode="V" horiz-adv-x="1427" d="M35 1486h365l318 -1134h15l312 1134h349l-484 -1486h-386z" />
<glyph unicode="W" horiz-adv-x="1975" d="M33 1486h340l212 -1041h14l256 1041h269l254 -1041h16l211 1041h337l-389 -1486h-292l-266 989h-13l-268 -989h-291z" />
<glyph unicode="X" horiz-adv-x="1359" d="M21 0l456 747l-452 739h368l296 -516h14l294 516h354l-469 -743l463 -743h-361l-303 506h-15l-304 -506h-341z" />
<glyph unicode="Y" horiz-adv-x="1323" d="M8 1486h348l304 -620h12l306 620h339l-497 -939v-547h-314v539z" />
<glyph unicode="Z" horiz-adv-x="1344" d="M121 0v212l701 993v15h-685v266h1068v-210l-701 -993v-17h722v-266h-1105z" />
<glyph unicode="[" horiz-adv-x="836" d="M146 -248v1734h593v-233h-302v-1268h316v-233h-607z" />
<glyph unicode="\" horiz-adv-x="801" d="M17 1565h274l500 -1877h-275z" />
<glyph unicode="]" horiz-adv-x="836" d="M85 -15h315v1268h-302v233h595v-1734h-608v233z" />
<glyph unicode="^" horiz-adv-x="1030" d="M67 866l320 620h262l317 -620h-267l-177 368h-12l-183 -368h-260z" />
<glyph unicode="_" horiz-adv-x="986" d="M-2 -112h991v-244h-991v244z" />
<glyph unicode="`" horiz-adv-x="1088" d="M237 1725h269l258 -383h-223z" />
<glyph unicode="a" horiz-adv-x="1259" d="M108 337q0 158 107.5 252t304.5 94h279v102q0 50 -23 85t-62.5 52t-95.5 17q-158 0 -179 -119h-289q10 156 125.5 256t346.5 100q83 0 153 -12.5t130.5 -42.5t104 -76t67.5 -114.5t24 -156.5v-774h-287v146h-15q-37 -71 -114 -117t-196 -46q-171 0 -276 95t-105 259z M412 360q0 -71 52 -110.5t127 -39.5q42 0 80.5 12.5t66.5 35.5t44.5 55t16.5 70v119h-208q-87 0 -133 -38.5t-46 -103.5z" />
<glyph unicode="b" horiz-adv-x="1367" d="M169 0v1565h308v-589h14q17 54 59.5 98t114.5 72t159 28q131 0 227 -59.5t149 -178t53 -285.5v-141q0 -250 -116.5 -387.5t-316.5 -137.5q-127 0 -213.5 54.5t-119.5 139.5h-17v-179h-301zM477 510q0 -125 64.5 -199t170.5 -74q104 0 164.5 75t60.5 221v91 q0 146 -60.5 222t-168 76t-169.5 -75t-62 -208v-129z" />
<glyph unicode="c" horiz-adv-x="1223" d="M112 520v129q0 239 141.5 385t381.5 146q225 0 354 -119.5t131 -302.5h-281q-4 44 -23 81t-63.5 65t-107.5 28q-106 0 -165.5 -78t-59.5 -209v-123q0 -92 27.5 -157t77 -99.5t120.5 -34.5q175 0 198 162h281q-4 -196 -135.5 -305t-353.5 -109q-158 0 -274.5 62.5 t-182.5 185t-66 293.5z" />
<glyph unicode="d" horiz-adv-x="1369" d="M114 504v154q0 160 53.5 276.5t151 178t230.5 61.5q127 0 212.5 -53t116.5 -139h15v583h306v-1565h-302v185h-15q-27 -85 -116.5 -141t-220.5 -56q-196 0 -313.5 136t-117.5 380zM431 529q0 -142 61.5 -217t167.5 -75t169.5 74t63.5 209v131q0 125 -65.5 198t-171.5 73 q-67 0 -118 -33.5t-79 -99t-28 -158.5v-102z" />
<glyph unicode="e" horiz-adv-x="1259" d="M112 520v123q0 256 147 396.5t374 140.5q233 0 375.5 -145.5t142.5 -391.5v-131h-737v-54q0 -106 63.5 -171.5t169.5 -65.5q83 0 140.5 35t67.5 89h286q-4 -60 -34.5 -121.5t-86.5 -117.5t-153 -91.5t-218 -35.5q-248 0 -392.5 140.5t-144.5 400.5zM414 697h441v9 q0 108 -60 174.5t-159 66.5t-160.5 -66.5t-61.5 -174.5v-9z" />
<glyph unicode="f" horiz-adv-x="924" d="M81 901v244h187v114q0 177 95 253t309 76q71 0 169 -10v-221q-46 6 -106 6q-89 0 -129 -30t-40 -101v-87h258v-244h-252v-901h-304v901h-187z" />
<glyph unicode="g" horiz-adv-x="1342" d="M110 545v104q0 167 55.5 285.5t153 179t226.5 60.5q81 0 150 -27t113.5 -70t65.5 -97h13v179h301v-1144q0 -121 -45.5 -209.5t-125.5 -138.5t-175 -73t-207 -23q-241 0 -367 98t-135 248h296q12 -54 69.5 -84.5t144.5 -30.5q121 0 181.5 60.5t60.5 174.5v167h-17 q-33 -81 -118.5 -132t-204.5 -51q-196 0 -315.5 138.5t-119.5 385.5zM423 547q0 -137 65.5 -215t171.5 -78q69 0 119.5 35.5t76.5 96.5t26 143v116q0 125 -60 201t-164 76q-106 0 -170.5 -77t-64.5 -214v-84z" />
<glyph unicode="h" horiz-adv-x="1373" d="M171 0v1565h306v-608h14q10 35 33 69.5t62.5 70t104.5 57.5t144 22q114 0 198.5 -43.5t134.5 -136.5t50 -226v-770h-308v685q0 79 -28.5 132t-72 74t-103.5 21q-104 0 -166.5 -73t-62.5 -196v-643h-306z" />
<glyph unicode="i" horiz-adv-x="676" d="M150 1496q0 73 51 120t136 47q87 0 139.5 -47t52.5 -120q0 -75 -52 -120.5t-140 -45.5q-85 0 -136 45.5t-51 120.5zM185 0v1159h306v-1159h-306z" />
<glyph unicode="j" horiz-adv-x="676" d="M-25 -160q31 -6 62 -7q75 0 111.5 37.5t36.5 121.5v1167h306v-1169q0 -194 -105 -288.5t-288 -94.5q-75 0 -123 6v227zM150 1496q0 73 51 120t136 47q87 0 139.5 -47t52.5 -120q0 -75 -52 -120.5t-140 -45.5q-85 0 -136 45.5t-51 120.5z" />
<glyph unicode="k" horiz-adv-x="1275" d="M169 0v1565h306v-876h12l370 470h344l-414 -499l443 -660h-356l-322 481l-77 -86v-395h-306z" />
<glyph unicode="l" horiz-adv-x="653" d="M175 0v1565h306v-1565h-306z" />
<glyph unicode="m" horiz-adv-x="2006" d="M167 0v1159h297v-193h15q25 83 101 146.5t215 63.5q127 0 208 -59.5t110 -157.5h11q10 27 26 52t37.5 50t52 46t64.5 36.5t79 24t93 8.5q175 0 272.5 -99t97.5 -269v-808h-306v708q0 106 -51 158t-138 52q-56 0 -101 -25t-71 -76t-26 -122v-695h-293v703 q0 108 -53.5 161.5t-139.5 53.5t-141.5 -57.5t-55.5 -163.5v-697h-303z" />
<glyph unicode="n" horiz-adv-x="1365" d="M167 0v1159h297v-202h15q12 37 35 72t62.5 70t103 56t142.5 21q179 0 282 -103t103 -303v-770h-306v687q0 117 -55 171t-145 54q-106 0 -168.5 -72t-62.5 -197v-643h-303z" />
<glyph unicode="o" horiz-adv-x="1298" d="M112 527v112q0 244 147.5 392.5t391.5 148.5q241 0 388 -146.5t147 -392.5v-114q0 -258 -144.5 -403t-390.5 -145q-250 0 -394.5 143.5t-144.5 404.5zM423 524q0 -129 57 -215t169 -86t169.5 86t57.5 215v113q0 85 -24 150.5t-76 107.5t-127 42q-110 0 -168 -85.5 t-58 -214.5v-113z" />
<glyph unicode="p" horiz-adv-x="1363" d="M167 -383v1542h301v-183h17q21 56 65.5 100t114.5 71t155 27q198 0 313.5 -136.5t115.5 -386.5v-141q0 -250 -116.5 -387.5t-316.5 -137.5q-125 0 -208.5 53.5t-118.5 140.5h-14v-562h-308zM475 508q0 -125 63.5 -198t167.5 -73q106 0 167.5 75t61.5 221v93 q0 144 -61.5 220t-170.5 76q-69 0 -120.5 -32.5t-79.5 -97t-28 -151.5v-133z" />
<glyph unicode="q" horiz-adv-x="1363" d="M114 508v143q0 246 116.5 384.5t314.5 138.5q62 0 118.5 -14.5t99 -40.5t73 -62.5t44.5 -80.5h15v183h304v-1542h-308v564h-15q-31 -87 -118.5 -141.5t-214.5 -54.5q-198 0 -313.5 137.5t-115.5 385.5zM431 529q0 -142 61.5 -217t167.5 -75q71 0 123 32.5t80 97t28 153.5 v129q0 62 -17 114.5t-48 87t-73.5 53t-94.5 18.5q-106 0 -166.5 -77t-60.5 -214v-102z" />
<glyph unicode="r" horiz-adv-x="938" d="M175 0v1159h308v-183h14q8 33 29 65.5t54.5 63.5t86.5 51t116 20q60 0 95 -8v-275q-33 12 -116 12q-135 0 -204 -69.5t-69 -190.5v-645h-314z" />
<glyph unicode="s" horiz-adv-x="1184" d="M100 325h298q8 -60 57 -95.5t136 -35.5q96 0 144 36t48 95q0 17 -4.5 31t-15 25.5t-20.5 21t-31 17t-34.5 12.5t-40.5 11.5t-42.5 9.5t-49 9t-48.5 8q-85 17 -147.5 40t-116.5 61.5t-82 100t-28 142.5q0 96 38.5 167.5t105 114t148.5 63.5t180 21q202 0 326 -90.5 t124 -252.5h-271q-4 33 -25 62t-62.5 49t-95.5 20q-42 0 -75 -9.5t-55 -26t-34.5 -40.5t-12.5 -53q0 -19 6.5 -34.5t19 -28t25 -22t35 -18t39.5 -13.5t45 -10t43.5 -8.5t47 -7.5t41.5 -6q175 -29 269.5 -105t94.5 -224q0 -179 -133 -281t-370 -102q-223 0 -350 95t-127 251z " />
<glyph unicode="t" horiz-adv-x="915" d="M75 901v244h183v287h298v-287h256v-244h-256v-522q0 -79 37.5 -110.5t126.5 -31.5q58 0 100 4v-233q-65 -14 -162 -14h-13q-216 0 -304.5 77t-88.5 258v572h-177z" />
<glyph unicode="u" horiz-adv-x="1363" d="M158 381v778h306v-697q0 -62 16.5 -106t47 -67t63.5 -33t75 -10q96 0 160.5 63.5t64.5 165.5v684h308v-1159h-300v194h-14q-27 -81 -114.5 -146t-225.5 -65q-181 0 -284 99t-103 299z" />
<glyph unicode="v" horiz-adv-x="1207" d="M42 1159h333l216 -868h13l241 868h323l-402 -1159h-346z" />
<glyph unicode="w" horiz-adv-x="1779" d="M50 1159h320l161 -836h12l208 836h288l212 -836h12l165 836h304l-300 -1159h-319l-214 803h-10l-210 -803h-323z" />
<glyph unicode="x" horiz-adv-x="1246" d="M58 1159h354l210 -374h13l216 374h335l-376 -574l368 -585h-341l-215 379h-12l-215 -379h-324l356 577z" />
<glyph unicode="y" horiz-adv-x="1252" d="M50 1159h337l233 -893h13l237 893h327q-368 -1101 -375 -1115l-29 -77q-33 -89 -69.5 -152t-94 -117t-140.5 -81t-193 -27q-92 0 -165 15v224q33 -8 96 -8q102 0 147.5 36.5t60.5 111.5l8 33z" />
<glyph unicode="z" horiz-adv-x="1150" d="M121 0v175l541 722v15h-535v247h903v-195l-520 -700v-14h535v-250h-924z" />
<glyph unicode="{" horiz-adv-x="917" d="M117 491v289q102 0 137 49t35 164v187q0 212 108.5 300.5t339.5 88.5h108v-231h-44q-87 0 -134 -19.5t-66.5 -64.5t-19.5 -126v-239q0 -114 -53.5 -171t-161.5 -67v-31q214 -19 215 -258v-262q0 -81 19.5 -125t66.5 -64.5t134 -20.5h44v-229h-108q-231 0 -339.5 91.5 t-108.5 305.5v219q0 117 -35 165.5t-137 48.5z" />
<glyph unicode="|" horiz-adv-x="830" d="M277 -323v1888h277v-1888h-277z" />
<glyph unicode="}" horiz-adv-x="919" d="M75 -110h46q65 0 105 10.5t66 36.5t36.5 64.5t10.5 98.5v262q1 237 215 258v31q-108 10 -161.5 66.5t-53.5 171.5v239q0 121 -46.5 165.5t-171.5 44.5h-46v231h108q231 0 338.5 -88.5t107.5 -300.5v-187q0 -114 36 -163.5t138 -49.5v-289q-102 0 -138 -49t-36 -165v-219 q0 -214 -107.5 -305.5t-338.5 -91.5h-108v229z" />
<glyph unicode="~" horiz-adv-x="1269" d="M89 552q0 127 32.5 221.5t107.5 152.5t189 58q121 0 244 -104q40 -33 56.5 -47.5t48.5 -30t61 -15.5q114 0 125 166h223q0 -194 -82.5 -315.5t-244.5 -121.5q-119 0 -245 108q-6 4 -24 19t-25.5 21t-22 17.5t-23.5 16.5t-23 11.5t-25 8.5t-24 2q-112 0 -123 -168h-225z " />
<glyph unicode="&#xa1;" horiz-adv-x="670" d="M135 1030q0 79 54.5 127t145.5 48q89 0 143.5 -48t54.5 -127q0 -77 -54 -126t-144 -49q-92 0 -146 49t-54 126zM164 -304l38 989h264l36 -989h-338z" />
<glyph unicode="&#xa2;" d="M144 672v150q0 219 119.5 353t294.5 155v243h231v-245q169 -19 274 -135.5t109 -268.5h-277q-6 67 -64.5 123t-158.5 56q-114 0 -179.5 -77t-65.5 -202v-154q0 -52 10 -96.5t32 -79t52.5 -59.5t69 -37.5t83.5 -12.5q100 0 158.5 49t68.5 120h275q-4 -162 -112.5 -272.5 t-274.5 -127.5v-241h-231v239q-179 19 -296.5 154t-117.5 366z" />
<glyph unicode="&#xa3;" d="M114 629v214h188v262q0 187 126 297.5t340 110.5q221 0 344.5 -109t125.5 -315h-287q-2 73 -49 119.5t-130 46.5q-89 0 -134 -52t-45 -137v-223h317v-214h-317l-2 -144q-4 -169 -91 -210v-19h747v-256h-1120v266q85 10 130 59.5t45 171.5v132h-188z" />
<glyph unicode="&#xa4;" d="M102 289l177 175q-69 112 -69 242.5t67 240.5l-175 171l154 160l175 -173q108 71 241 71q129 0 240 -69l170 171l156 -160l-170 -169q67 -112 66 -243q0 -131 -70 -244l174 -173l-156 -160l-175 175q-108 -65 -235 -65q-129 0 -237 65l-179 -175zM437 706 q0 -94 68.5 -162.5t166.5 -68.5t166.5 68.5t68.5 162.5q0 98 -68.5 165.5t-166.5 67.5q-65 0 -118.5 -31.5t-85 -84t-31.5 -117.5z" />
<glyph unicode="&#xa5;" d="M19 1486h347l304 -620h13l306 620h339l-414 -770h233v-196h-317v-125h317v-195h-317v-200h-314v200h-310v195h310v125h-310v196h225z" />
<glyph unicode="&#xa6;" horiz-adv-x="688" d="M206 -323v737h277v-737h-277zM206 849v716h277v-716h-277z" />
<glyph unicode="&#xa7;" horiz-adv-x="1069" d="M85 83h256q10 -62 58 -99.5t132 -37.5q92 0 136.5 38.5t44.5 94.5q0 23 -7.5 40.5t-26 33.5t-32 26t-48 21.5t-51 18t-62.5 19t-62 16.5q-73 21 -127.5 45t-103 61.5t-74.5 92.5t-26 128q0 175 181 279v6q-171 100 -171 283q0 173 127 269.5t316 96.5q196 0 311.5 -100 t115.5 -258h-252q-2 56 -52 99t-131 43q-48 0 -84.5 -18t-57 -48t-20.5 -67q0 -29 14.5 -53t33 -39t56 -30.5t62.5 -22.5t75 -20q29 -8 42 -12q75 -21 126 -41t104 -56.5t80 -92.5t27 -133q0 -179 -171 -293v-7q77 -46 120 -105t43 -155q0 -169 -124 -274t-330 -105 q-196 0 -321 96t-127 260zM358 624q0 -67 47 -102t138 -60q15 -4 43 -10.5t36 -8.5q29 15 54 40t38.5 57t13.5 68q0 123 -187 164q-10 2 -34 7.5t-35 7.5q-46 -19 -80 -65t-34 -98z" />
<glyph unicode="&#xa8;" horiz-adv-x="1088" d="M175 1474q0 62 39.5 100.5t101.5 38.5q65 0 104.5 -38.5t39.5 -100.5q0 -60 -39.5 -98t-104.5 -38q-62 0 -101.5 38t-39.5 98zM620 1474q0 62 38.5 100.5t101.5 38.5q44 0 76 -17.5t50.5 -49t18.5 -72.5q0 -60 -39.5 -98t-105.5 -38q-62 0 -101 38t-39 98z" />
<glyph unicode="&#xa9;" horiz-adv-x="1841" d="M144 701v113q0 206 99.5 376.5t279.5 269.5t405 99q169 0 315.5 -59.5t248.5 -159.5t160.5 -237t58.5 -289v-113q0 -335 -219 -552.5t-564 -217.5t-564.5 217.5t-219.5 552.5zM289 699q0 -275 177 -449.5t461 -174.5t462 176t178 448v113q0 256 -180 428.5t-459 172.5 q-187 0 -334 -80t-226 -217.5t-79 -303.5v-113zM556 689v106q0 169 106 265.5t273 96.5q152 0 249.5 -87.5t99.5 -209.5h-189q-6 50 -46 86t-114 36q-181 0 -182 -193v-102q0 -94 49 -139.5t133 -45.5q148 0 162 106h189q-2 -119 -96.5 -202t-254.5 -83q-169 0 -274 96.5 t-105 269.5z" />
<glyph unicode="&#xaa;" horiz-adv-x="774" d="M73 1012q0 94 63.5 145.5t190.5 51.5h158v52q0 73 -98 73q-85 0 -94 -56h-191q4 89 71.5 146.5t217.5 57.5q300 0 300 -227v-431h-198v81h-8q-46 -89 -177 -89q-110 0 -172.5 52t-62.5 144zM277 1028q0 -35 28 -53t70 -18q29 0 54 9.5t40.5 29.5t15.5 45v54h-106 q-102 2 -102 -67z" />
<glyph unicode="&#xab;" horiz-adv-x="1475" d="M127 606v10l375 439h283l-369 -439v-6l369 -441h-294zM679 606v10l374 439h283l-370 -439v-6l370 -441h-293z" />
<glyph unicode="&#xac;" d="M117 464v254h1107v-626h-265v372h-842z" />
<glyph unicode="&#xad;" horiz-adv-x="913" d="M114 468v283h685v-283h-685z" />
<glyph unicode="&#xae;" horiz-adv-x="1317" d="M108 980v77q0 214 158.5 363t391.5 149q152 0 279 -68.5t197.5 -186t70.5 -257.5v-77q0 -229 -155 -378.5t-392 -149.5q-156 0 -282 67.5t-197 189t-71 271.5zM233 980q0 -175 119.5 -292.5t305 -117.5t305 117.5t119.5 292.5v75q0 164 -120.5 280t-303.5 116 q-121 0 -219 -53t-152 -144t-54 -199v-75zM445 760v526h265q83 0 134 -49t51 -121q0 -58 -29 -101t-75 -56l121 -199h-146l-102 185h-87v-185h-132zM577 1043h85q96 0 96 73q0 21 -10.5 36.5t-30.5 23.5t-47 8h-93v-141z" />
<glyph unicode="&#xaf;" horiz-adv-x="1088" d="M212 1353v173h658v-173h-658z" />
<glyph unicode="&#xb0;" horiz-adv-x="774" d="M62 1184.5q0 137.5 94 232t233 94.5q89 0 164.5 -42.5t118 -117.5t42.5 -167q0 -137 -95 -232t-230 -95q-137 0 -232 95t-95 232.5zM244 1184q0 -58 43.5 -100.5t101.5 -42.5q60 0 102 42.5t42 100.5q0 60 -41.5 102t-102.5 42q-58 0 -101.5 -41.5t-43.5 -102.5z" />
<glyph unicode="&#xb1;" d="M146 697v240h391v245h266v-245h396v-240h-396v-262h-266v262h-391zM148 62v250h1053v-250h-1053z" />
<glyph unicode="&#xb2;" horiz-adv-x="759" d="M89 1249v14q0 96 73 169t213 73q65 0 117.5 -17t88 -46t55.5 -69.5t20 -86.5q0 -42 -12.5 -79t-39.5 -69.5t-42 -47t-40 -37.5l-143 -121v-6h289v-166h-560v131l265 247q81 77 81 127q0 33 -24 54t-60 21q-25 0 -44.5 -10t-29 -28t-9.5 -39v-14h-198z" />
<glyph unicode="&#xb3;" horiz-adv-x="774" d="M85 980h190q2 -33 27 -55t71 -22q48 0 77 22t29 55q0 21 -11.5 37.5t-34.5 27t-54 10.5h-86v152h82q29 0 49.5 10.5t31 26t10.5 36.5q0 31 -25 51t-66 20q-44 0 -67 -23t-25 -56h-191q4 108 79 170.5t210 62.5q85 0 148.5 -25t97 -69t33.5 -102q0 -67 -41.5 -110.5 t-98.5 -53.5v-9q71 -8 116 -49.5t45 -116.5q0 -108 -86.5 -166.5t-213.5 -58.5q-98 0 -166.5 35.5t-99 86.5t-30.5 113z" />
<glyph unicode="&#xb4;" horiz-adv-x="1088" d="M298 1342l258 383h268l-304 -383h-222z" />
<glyph unicode="&#xb6;" horiz-adv-x="1604" d="M127 978q0 108 31 196.5t83 145t120 95t137.5 55t142.5 16.5h310v-1715h-289v697h-23q-89 0 -176.5 32.5t-163.5 93t-124 161t-48 223.5zM1128 -229v1715h289v-1715h-289z" />
<glyph unicode="&#xb7;" horiz-adv-x="718" d="M162 847q0 89 56.5 143.5t141.5 54.5t141.5 -54t56.5 -142.5t-56.5 -141.5t-141.5 -53t-141.5 53t-56.5 140z" />
<glyph unicode="&#xb8;" horiz-adv-x="1088" d="M373 -368q52 -15 120 -15q119 0 119 62q0 37 -32.5 51t-104.5 14h-61v117l54 145h177l-52 -131q65 0 111.5 -22t72.5 -63.5t26 -99.5q0 -106 -72.5 -159t-197.5 -55q-92 -2 -160 16v140z" />
<glyph unicode="&#xb9;" horiz-adv-x="668" d="M112 1182v181l179 123h211v-726h-211v539h-10z" />
<glyph unicode="&#xba;" horiz-adv-x="788" d="M71 1120v54q0 139 88 223.5t236 84.5q73 0 133.5 -22t102 -61.5t64.5 -96.5t23 -128v-54q0 -150 -86.5 -231t-236.5 -81q-152 0 -238 81t-86 231zM273 1116q0 -67 29 -110.5t93 -43.5q62 0 90.5 43.5t28.5 110.5v60q0 67 -29.5 110.5t-89.5 43.5q-62 0 -92 -43.5 t-30 -110.5v-60z" />
<glyph unicode="&#xbb;" horiz-adv-x="1475" d="M127 169l370 441v6l-370 439h283l375 -439v-10l-365 -437h-293zM679 169l368 441v6l-368 439h283l374 -439v-10l-364 -437h-293z" />
<glyph unicode="&#xbc;" horiz-adv-x="1600" d="M54 1182v181l177 123h210v-726h-210v539h-8zM94 -2l607 785l537 703h229l-599 -768l-547 -720h-227zM910 112v152q97 183 266 458h281v-458h87v-152h-87v-112h-185v112h-362zM1089 264h183v310h-11q-79 -127 -172 -308v-2z" />
<glyph unicode="&#xbd;" horiz-adv-x="1613" d="M50 1182v181l179 123h208v-726h-208v539h-10zM89 -2l608 785l539 703h227l-597 -768l-548 -720h-229zM993 481v14q0 98 74 171t215 73q129 0 206 -61.5t77 -159.5q0 -42 -12.5 -78t-41.5 -71.5t-40.5 -47t-40.5 -38.5l-146 -123v-4h292v-168h-564v133l266 249 q83 75 83 130q0 31 -25 52.5t-60 21.5q-37 0 -60 -22.5t-23 -54.5v-16h-200z" />
<glyph unicode="&#xbe;" horiz-adv-x="1627" d="M37 970h192q0 -35 26 -57t73 -22t76 22t29 57q0 31 -27 52t-73 21h-85v154h81q29 0 50 9t31 26t10 38q0 33 -25 51.5t-66 18.5q-44 0 -68 -21.5t-24 -57.5h-193q4 73 37 125t98 81t156 29q129 0 205 -54t76 -143q0 -67 -41.5 -110.5t-97.5 -54.5v-8q69 -8 115.5 -51 t46.5 -118q0 -110 -88.5 -167t-215.5 -57q-146 0 -222 68.5t-76 168.5zM135 -2l608 785l537 703h227l-597 -768l-548 -720h-227zM951 112v152q98 183 267 458h281v-456h87v-154h-87v-112h-186v112h-362zM1128 266h185v308h-10q-83 -131 -175 -306v-2z" />
<glyph unicode="&#xbf;" horiz-adv-x="1123" d="M69 62q0 67 17.5 122t54 98t66.5 69t80 61q58 40 83 59.5t51 48.5t34.5 59.5t8.5 74.5v54h275l2 -59q15 -219 -192 -356q-65 -44 -92.5 -66.5t-51.5 -62t-24 -85.5q0 -85 56 -128t137 -43q62 0 108 26t68 71t22 101h283q2 -79 -15.5 -145.5t-53 -114.5t-82.5 -84.5 t-104 -59.5t-118.5 -33t-125.5 -10q-206 0 -346.5 105t-140.5 298zM391 1022q0 77 55.5 125t146.5 48q87 0 142.5 -48t55.5 -125q0 -52 -25 -91.5t-70 -62.5t-103 -23q-92 0 -147 49t-55 128z" />
<glyph unicode="&#xc0;" horiz-adv-x="1440" d="M42 0l493 1486h375l489 -1486h-338l-108 360h-485l-110 -360h-316zM291 1873h308l288 -237h-271zM531 601h360l-171 581h-17z" />
<glyph unicode="&#xc1;" horiz-adv-x="1440" d="M42 0l493 1486h375l489 -1486h-338l-108 360h-485l-110 -360h-316zM527 1636l297 245h321l-331 -245h-287zM531 601h360l-171 581h-17z" />
<glyph unicode="&#xc2;" horiz-adv-x="1440" d="M42 0l493 1486h375l489 -1486h-338l-108 360h-485l-110 -360h-316zM329 1619l293 273h217l281 -273h-244l-141 138h-15l-150 -138h-241zM531 601h360l-171 581h-17z" />
<glyph unicode="&#xc3;" horiz-adv-x="1440" d="M42 0l493 1486h375l489 -1486h-338l-108 360h-485l-110 -360h-316zM368 1607q0 98 55.5 174t159.5 76q37 0 69.5 -9.5t54 -24t51.5 -39.5q4 -4 17.5 -16.5t18.5 -18t15.5 -11.5t20 -9.5t21.5 -3.5q35 0 54 34.5t21 78.5h163q0 -106 -62.5 -181t-158.5 -75q-62 0 -98 15.5 t-69 46.5q-4 4 -11 11.5t-12.5 11.5t-12.5 10.5t-13.5 10.5t-13.5 7t-15.5 5.5t-16.5 2.5q-69 0 -75 -96h-163zM531 601h360l-171 581h-17z" />
<glyph unicode="&#xc4;" horiz-adv-x="1440" d="M42 0l493 1486h375l489 -1486h-338l-108 360h-485l-110 -360h-316zM370 1719q0 58 37.5 94.5t98.5 36.5q62 0 99.5 -36.5t37.5 -94.5t-37.5 -94.5t-99.5 -36.5q-40 0 -70 16.5t-48 47t-18 67.5zM531 601h360l-171 581h-17zM797 1719q0 29 9.5 53t27 42t42.5 27t54 9 q62 0 101 -36.5t39 -94.5t-37.5 -94.5t-102.5 -36.5q-60 0 -96.5 36.5t-36.5 94.5z" />
<glyph unicode="&#xc5;" horiz-adv-x="1440" d="M42 0l468 1397q-89 77 -90 197q0 127 85.5 212.5t210.5 85.5q81 0 148.5 -38.5t106 -107t38.5 -152.5q0 -110 -79 -185l469 -1409h-338l-108 360h-485l-110 -360h-316zM531 601h360l-171 581h-17zM593 1592q0 -50 35.5 -85.5t87.5 -35.5q33 0 61 16t45 44t17 61 q0 52 -36.5 86.5t-86.5 34.5q-52 0 -87.5 -34.5t-35.5 -86.5z" />
<glyph unicode="&#xc6;" horiz-adv-x="2125" d="M35 0l716 1486h1237v-264h-656v-350h616v-246h-616v-362h656v-264h-966v358h-462l-177 -358h-348zM664 608h358v614h-73z" />
<glyph unicode="&#xc7;" horiz-adv-x="1454" d="M123 654v174q0 321 166.5 503t461.5 182q268 0 429.5 -151t161.5 -378v-35h-301q0 121 -77 205t-211 84q-144 0 -228 -106t-84 -304v-174q0 -200 83.5 -303t231.5 -103q135 0 210 78t75 198h301v-35q0 -198 -136 -343.5t-376 -168.5l-39 -102q62 0 110 -22t73 -63.5 t25 -99.5q0 -71 -34.5 -120t-94 -70.5t-142.5 -23.5q-92 -2 -158 16v140q52 -15 121 -15q119 0 119 62q0 37 -32.5 51t-107.5 14h-60v117l46 116q-254 29 -393.5 206t-139.5 471z" />
<glyph unicode="&#xc8;" horiz-adv-x="1288" d="M181 0v1486h970v-264h-658v-350h620v-246h-620v-362h658v-264h-970zM227 1873h310l287 -237h-272z" />
<glyph unicode="&#xc9;" horiz-adv-x="1288" d="M181 0v1486h970v-264h-658v-350h620v-246h-620v-362h658v-264h-970zM462 1636l300 245h320l-333 -245h-287z" />
<glyph unicode="&#xca;" horiz-adv-x="1288" d="M181 0v1486h970v-264h-658v-350h620v-246h-620v-362h658v-264h-970zM266 1619l294 273h216l279 -273h-243l-140 138h-16l-150 -138h-240z" />
<glyph unicode="&#xcb;" horiz-adv-x="1288" d="M181 0v1486h970v-264h-658v-350h620v-246h-620v-362h658v-264h-970zM308 1719q0 58 36.5 94.5t96.5 36.5q62 0 100 -36.5t38 -94.5t-37.5 -94.5t-100.5 -36.5q-60 0 -96.5 36.5t-36.5 94.5zM733 1719q0 29 9 53t27 42t43 27t54 9q65 0 102 -36.5t37 -94.5t-37.5 -94.5 t-101.5 -36.5q-60 0 -96.5 36.5t-36.5 94.5z" />
<glyph unicode="&#xcc;" horiz-adv-x="678" d="M-89 1873h308l287 -237h-273zM181 0v1486h316v-1486h-316z" />
<glyph unicode="&#xcd;" horiz-adv-x="678" d="M146 1636l297 245h321l-331 -245h-287zM181 0v1486h316v-1486h-316z" />
<glyph unicode="&#xce;" horiz-adv-x="678" d="M-52 1619l293 273h217l281 -273h-246l-139 138h-15l-152 -138h-239zM181 0v1486h316v-1486h-316z" />
<glyph unicode="&#xcf;" horiz-adv-x="678" d="M-10 1719q0 58 37.5 94.5t97.5 36.5q62 0 99.5 -36.5t37.5 -94.5t-37.5 -94.5t-99.5 -36.5q-60 0 -97.5 36.5t-37.5 94.5zM181 0v1486h316v-1486h-316zM416 1719q0 58 36.5 94.5t96.5 36.5q62 0 101 -36.5t39 -94.5t-38.5 -94.5t-101.5 -36.5q-60 0 -96.5 36.5 t-36.5 94.5z" />
<glyph unicode="&#xd0;" horiz-adv-x="1608" d="M100 610v285h179v591h558q175 0 305 -53t208 -153t115.5 -232t37.5 -300.5t-37.5 -302t-115.5 -235.5t-208 -156t-305 -54h-558v610h-179zM595 271h194q96 0 164.5 23.5t120.5 78t77 148t25 226.5q0 483 -387 483h-194v-335h256v-285h-256v-339z" />
<glyph unicode="&#xd1;" horiz-adv-x="1563" d="M181 0v1486h258l635 -930h12v930h296v-1486h-256l-635 937h-12v-937h-298zM429 1607q0 98 56 174t158 76q56 0 93.5 -18t81.5 -55q4 -4 17.5 -16.5t20 -18t15.5 -11.5t19.5 -9.5t21.5 -3.5q35 0 53.5 34.5t21.5 78.5h162q0 -106 -61.5 -181t-157.5 -75q-65 0 -99 15.5 t-69 46.5l-15.5 15.5t-18 17t-17 12.5t-21.5 10.5t-22 3.5q-69 0 -75 -96h-164z" />
<glyph unicode="&#xd2;" horiz-adv-x="1533" d="M123 647v181q0 318 171.5 501.5t473.5 183.5t472.5 -184t170.5 -501v-181q0 -314 -171.5 -495t-473.5 -181t-472.5 181t-170.5 495zM337 1873h308l287 -237h-270zM443 647q0 -198 87.5 -300.5t235.5 -102.5t236.5 103t88.5 300v186q0 198 -88.5 304t-236.5 106 q-146 0 -234.5 -106t-88.5 -304v-186z" />
<glyph unicode="&#xd3;" horiz-adv-x="1533" d="M123 647v181q0 318 171.5 501.5t473.5 183.5t472.5 -184t170.5 -501v-181q0 -314 -171.5 -495t-473.5 -181t-472.5 181t-170.5 495zM443 647q0 -198 87.5 -300.5t235.5 -102.5t236.5 103t88.5 300v186q0 198 -88.5 304t-236.5 106q-146 0 -234.5 -106t-88.5 -304v-186z M572 1636l298 245h321l-331 -245h-288z" />
<glyph unicode="&#xd4;" horiz-adv-x="1533" d="M123 647v181q0 318 171.5 501.5t473.5 183.5t472.5 -184t170.5 -501v-181q0 -314 -171.5 -495t-473.5 -181t-472.5 181t-170.5 495zM375 1619l293 273h217l281 -273h-244l-142 138h-14l-150 -138h-241zM443 647q0 -198 87.5 -300.5t235.5 -102.5t236.5 103t88.5 300v186 q0 198 -88.5 304t-236.5 106q-146 0 -234.5 -106t-88.5 -304v-186z" />
<glyph unicode="&#xd5;" horiz-adv-x="1533" d="M123 647v181q0 318 171.5 501.5t473.5 183.5t472.5 -184t170.5 -501v-181q0 -314 -171.5 -495t-473.5 -181t-472.5 181t-170.5 495zM414 1607q0 98 55 174t160 76q56 0 93.5 -18t80.5 -55q4 -4 18 -16.5t19 -18t15.5 -11.5t20 -9.5t19.5 -3.5q21 0 35.5 10.5t23 27.5 t12.5 36.5t6 38.5h162q0 -106 -62.5 -181t-157.5 -75q-62 0 -98 15.5t-69 46.5l-15.5 15.5t-17.5 17t-17.5 12.5t-22 10.5t-23.5 3.5q-69 0 -74 -96h-163zM443 647q0 -198 87.5 -300.5t235.5 -102.5t236.5 103t88.5 300v186q0 198 -88.5 304t-236.5 106q-146 0 -234.5 -106 t-88.5 -304v-186z" />
<glyph unicode="&#xd6;" horiz-adv-x="1533" d="M123 647v181q0 318 171.5 501.5t473.5 183.5t472.5 -184t170.5 -501v-181q0 -314 -171.5 -495t-473.5 -181t-472.5 181t-170.5 495zM416 1719q0 58 37.5 94.5t98.5 36.5q62 0 99.5 -36.5t37.5 -94.5t-37.5 -94.5t-99.5 -36.5q-60 0 -98 36.5t-38 94.5zM443 647 q0 -198 87.5 -300.5t235.5 -102.5t236.5 103t88.5 300v186q0 198 -88.5 304t-236.5 106q-146 0 -234.5 -106t-88.5 -304v-186zM843 1719q0 58 36.5 94.5t96.5 36.5q42 0 73 -16.5t49 -45.5t18 -69q0 -58 -37.5 -94.5t-102.5 -36.5q-60 0 -96.5 36.5t-36.5 94.5z" />
<glyph unicode="&#xd7;" d="M156 260l329 329l-329 327l187 197l331 -328l329 328l188 -197l-329 -327l329 -329l-188 -198l-329 329l-331 -329z" />
<glyph unicode="&#xd8;" horiz-adv-x="1533" d="M110 81l121 148q-108 167 -108 418v181q0 318 171.5 501.5t473.5 183.5q246 0 404 -125l96 117l141 -106l-114 -138q117 -173 116 -433v-181q0 -314 -171.5 -495t-473.5 -181q-250 0 -410 127l-108 -131zM435 643q0 -79 19 -131l539 647q-87 89 -227 90 q-150 0 -240.5 -108.5t-90.5 -307.5v-190zM533 325q87 -92 233 -92q150 0 240.5 105t90.5 305v190q0 85 -23 143z" />
<glyph unicode="&#xd9;" horiz-adv-x="1544" d="M167 516v970h314v-937q0 -144 79 -221.5t212 -77.5t213.5 78t80.5 221v937h314v-972q0 -246 -165.5 -394.5t-441.5 -148.5t-441 150t-165 395zM343 1873h308l288 -237h-271z" />
<glyph unicode="&#xda;" horiz-adv-x="1544" d="M167 516v970h314v-937q0 -144 79 -221.5t212 -77.5t213.5 78t80.5 221v937h314v-972q0 -246 -165.5 -394.5t-441.5 -148.5t-441 150t-165 395zM579 1636l297 245h321l-331 -245h-287z" />
<glyph unicode="&#xdb;" horiz-adv-x="1544" d="M167 516v970h314v-937q0 -144 79 -221.5t212 -77.5t213.5 78t80.5 221v937h314v-972q0 -246 -165.5 -394.5t-441.5 -148.5t-441 150t-165 395zM381 1619l293 273h217l281 -273h-244l-141 138h-15l-150 -138h-241z" />
<glyph unicode="&#xdc;" horiz-adv-x="1544" d="M167 516v970h314v-937q0 -144 79 -221.5t212 -77.5t213.5 78t80.5 221v937h314v-972q0 -246 -165.5 -394.5t-441.5 -148.5t-441 150t-165 395zM423 1719q0 58 36 94.5t99 36.5q62 0 98.5 -36.5t36.5 -94.5t-36.5 -94.5t-98.5 -36.5q-60 0 -97.5 36.5t-37.5 94.5z M847 1719q0 58 37.5 94.5t97.5 36.5q42 0 73 -16.5t48 -45.5t17 -69q0 -58 -37.5 -94.5t-100.5 -36.5q-42 0 -72 16.5t-46.5 45.5t-16.5 69z" />
<glyph unicode="&#xdd;" horiz-adv-x="1323" d="M8 1486h348l304 -620h12l306 620h339l-497 -939v-547h-314v539zM466 1636l300 245h320l-333 -245h-287z" />
<glyph unicode="&#xde;" horiz-adv-x="1367" d="M181 0v1486h314v-239h281q239 0 373.5 -135.5t134.5 -351.5t-135 -348.5t-377 -132.5h-275v-279h-316zM495 529h192q131 0 204 52t73 179q0 114 -65.5 172.5t-186.5 58.5h-217v-462z" />
<glyph unicode="&#xdf;" horiz-adv-x="1496" d="M177 0v1141q0 212 151 323.5t386 111.5q241 0 388 -110.5t145 -285.5q0 -75 -24 -138.5t-61.5 -105t-81.5 -67.5t-87 -34v-19q156 -2 274.5 -106t118.5 -287q0 -144 -76 -246t-193.5 -148t-265.5 -46q-121 0 -197 19v250q58 -21 145 -21q121 0 197 53t76 157t-85.5 159.5 t-220.5 55.5h-85v262h52q85 0 150.5 57t65.5 147q0 87 -60.5 142.5t-168.5 55.5q-235 0 -235 -246v-1074h-308z" />
<glyph unicode="&#xe0;" horiz-adv-x="1259" d="M108 337q0 158 107.5 252t304.5 94h279v102q0 50 -23 85t-62.5 52t-95.5 17q-158 0 -179 -119h-289q10 156 125.5 256t346.5 100q83 0 153 -12.5t130.5 -42.5t104 -76t67.5 -114.5t24 -156.5v-774h-287v146h-15q-37 -71 -114 -117t-196 -46q-171 0 -276 95t-105 259z M241 1727h271l258 -385h-223zM412 360q0 -71 52 -110.5t127 -39.5q42 0 80.5 12.5t66.5 35.5t44.5 55t16.5 70v119h-208q-87 0 -133 -38.5t-46 -103.5z" />
<glyph unicode="&#xe1;" horiz-adv-x="1259" d="M108 337q0 158 107.5 252t304.5 94h279v102q0 50 -23 85t-62.5 52t-95.5 17q-158 0 -179 -119h-289q10 156 125.5 256t346.5 100q83 0 153 -12.5t130.5 -42.5t104 -76t67.5 -114.5t24 -156.5v-774h-287v146h-15q-37 -71 -114 -117t-196 -46q-171 0 -276 95t-105 259z M412 360q0 -71 52 -110.5t127 -39.5q42 0 80.5 12.5t66.5 35.5t44.5 55t16.5 70v119h-208q-87 0 -133 -38.5t-46 -103.5zM529 1342l258 385h270l-306 -385h-222z" />
<glyph unicode="&#xe2;" horiz-adv-x="1259" d="M108 337q0 158 107.5 252t304.5 94h279v102q0 50 -23 85t-62.5 52t-95.5 17q-158 0 -179 -119h-289q10 156 125.5 256t346.5 100q83 0 153 -12.5t130.5 -42.5t104 -76t67.5 -114.5t24 -156.5v-774h-287v146h-15q-37 -71 -114 -117t-196 -46q-171 0 -276 95t-105 259z M244 1340l274 381h223l262 -381h-239l-131 225h-11l-145 -225h-233zM412 360q0 -71 52 -110.5t127 -39.5q42 0 80.5 12.5t66.5 35.5t44.5 55t16.5 70v119h-208q-87 0 -133 -38.5t-46 -103.5z" />
<glyph unicode="&#xe3;" horiz-adv-x="1259" d="M108 337q0 158 107.5 252t304.5 94h279v102q0 50 -23 85t-62.5 52t-95.5 17q-158 0 -179 -119h-289q10 156 125.5 256t346.5 100q83 0 153 -12.5t130.5 -42.5t104 -76t67.5 -114.5t24 -156.5v-774h-287v146h-15q-37 -71 -114 -117t-196 -46q-171 0 -276 95t-105 259z M273 1299q0 129 60 217.5t169 88.5q52 0 89.5 -20t76.5 -64q4 -4 18.5 -21.5t21 -24t21 -13.5t31.5 -7q35 0 52.5 39.5t20.5 91.5h166q0 -125 -66.5 -216.5t-164.5 -91.5q-102 0 -162 77q-44 56 -92 56q-69 0 -75 -112h-166zM412 360q0 -71 52 -110.5t127 -39.5 q42 0 80.5 12.5t66.5 35.5t44.5 55t16.5 70v119h-208q-87 0 -133 -38.5t-46 -103.5z" />
<glyph unicode="&#xe4;" horiz-adv-x="1259" d="M108 337q0 158 107.5 252t304.5 94h279v102q0 50 -23 85t-62.5 52t-95.5 17q-158 0 -179 -119h-289q10 156 125.5 256t346.5 100q83 0 153 -12.5t130.5 -42.5t104 -76t67.5 -114.5t24 -156.5v-774h-287v146h-15q-37 -71 -114 -117t-196 -46q-171 0 -276 95t-105 259z M268 1438q0 42 18 73t50 48t74 17q33 0 59 -9.5t45 -28.5t29.5 -44t10.5 -56q0 -60 -39.5 -97.5t-104.5 -37.5q-62 0 -102 37.5t-40 97.5zM412 360q0 -71 52 -110.5t127 -39.5q42 0 80.5 12.5t66.5 35.5t44.5 55t16.5 70v119h-208q-87 0 -133 -38.5t-46 -103.5zM714 1438 q0 62 38.5 100t100.5 38q65 0 105.5 -37.5t40.5 -100.5q0 -60 -39.5 -97.5t-106.5 -37.5q-62 0 -100.5 37.5t-38.5 97.5z" />
<glyph unicode="&#xe5;" horiz-adv-x="1259" d="M108 337q0 158 107.5 252t304.5 94h279v102q0 50 -23 85t-62.5 52t-95.5 17q-158 0 -179 -119h-289q10 156 125.5 256t346.5 100q83 0 153 -12.5t130.5 -42.5t104 -76t67.5 -114.5t24 -156.5v-774h-287v146h-15q-37 -71 -114 -117t-196 -46q-171 0 -276 95t-105 259z M391 1521q0 100 68 165.5t170 65.5t169.5 -65.5t67.5 -165.5q0 -102 -67.5 -168.5t-169.5 -66.5t-170 66.5t-68 168.5zM412 360q0 -71 52 -110.5t127 -39.5q42 0 80.5 12.5t66.5 35.5t44.5 55t16.5 70v119h-208q-87 0 -133 -38.5t-46 -103.5zM529 1519q0 -44 28 -72 t71.5 -28t71.5 28.5t28 71.5q0 29 -12.5 51t-36 35.5t-50.5 13.5q-44 0 -72 -28t-28 -72z" />
<glyph unicode="&#xe6;" horiz-adv-x="1962" d="M106 335q0 162 109.5 255t308.5 93h275v102q0 75 -48 114.5t-133 39.5q-79 0 -125 -32.5t-56 -86.5h-289q8 154 126.5 256t349.5 102q114 0 211 -36.5t147 -98.5h17q50 62 140.5 98.5t198.5 36.5q231 0 372.5 -144.5t141.5 -390.5v-131h-732v-69q0 -50 17.5 -91.5 t49 -70.5t74 -44.5t92.5 -15.5q83 0 138 34t64 90h287q-4 -48 -22 -96.5t-57.5 -97.5t-93.5 -86.5t-135 -61.5t-179 -24q-164 0 -271.5 57.5t-155.5 152.5h-18q-52 -89 -153 -149.5t-245 -60.5q-185 0 -295.5 95t-110.5 261zM408 360q0 -71 54 -110.5t131 -39.5 q85 0 145.5 49t60.5 124v119h-204q-89 0 -138 -39.5t-49 -102.5zM1120 697h435v15q0 108 -57.5 171.5t-157.5 63.5q-96 0 -158 -64.5t-62 -166.5v-19z" />
<glyph unicode="&#xe7;" horiz-adv-x="1223" d="M112 520v129q0 239 141.5 385t381.5 146q225 0 354 -119.5t131 -302.5h-281q-4 44 -23 81t-63.5 65t-107.5 28q-106 0 -165.5 -78t-59.5 -209v-123q0 -92 27.5 -157t77 -99.5t120.5 -34.5q175 0 198 162h281q-2 -173 -106 -279t-287 -129l-44 -110q65 0 111.5 -22 t71.5 -63.5t25 -99.5q0 -106 -72 -159t-197 -55q-96 -2 -160 16v140q52 -15 121 -15q119 0 119 62q0 37 -32.5 51t-107.5 14h-60v117l48 124q-206 23 -324 162.5t-118 372.5z" />
<glyph unicode="&#xe8;" horiz-adv-x="1259" d="M112 520v123q0 256 147 396.5t374 140.5q233 0 375.5 -145.5t142.5 -391.5v-131h-737v-54q0 -106 63.5 -171.5t169.5 -65.5q83 0 140.5 35t67.5 89h286q-4 -60 -34.5 -121.5t-86.5 -117.5t-153 -91.5t-218 -35.5q-248 0 -392.5 140.5t-144.5 400.5zM244 1727h268 l258 -385h-223zM414 697h441v9q0 108 -60 174.5t-159 66.5t-160.5 -66.5t-61.5 -174.5v-9z" />
<glyph unicode="&#xe9;" horiz-adv-x="1259" d="M112 520v123q0 256 147 396.5t374 140.5q233 0 375.5 -145.5t142.5 -391.5v-131h-737v-54q0 -106 63.5 -171.5t169.5 -65.5q83 0 140.5 35t67.5 89h286q-4 -60 -34.5 -121.5t-86.5 -117.5t-153 -91.5t-218 -35.5q-248 0 -392.5 140.5t-144.5 400.5zM414 697h441v9 q0 108 -60 174.5t-159 66.5t-160.5 -66.5t-61.5 -174.5v-9zM531 1342l258 385h268l-304 -385h-222z" />
<glyph unicode="&#xea;" horiz-adv-x="1259" d="M112 520v123q0 256 147 396.5t374 140.5q233 0 375.5 -145.5t142.5 -391.5v-131h-737v-54q0 -106 63.5 -171.5t169.5 -65.5q83 0 140.5 35t67.5 89h286q-4 -60 -34.5 -121.5t-86.5 -117.5t-153 -91.5t-218 -35.5q-248 0 -392.5 140.5t-144.5 400.5zM244 1340l276 381h221 l262 -381h-237l-133 225h-11l-145 -225h-233zM414 697h441v9q0 108 -60 174.5t-159 66.5t-160.5 -66.5t-61.5 -174.5v-9z" />
<glyph unicode="&#xeb;" horiz-adv-x="1259" d="M112 520v123q0 256 147 396.5t374 140.5q233 0 375.5 -145.5t142.5 -391.5v-131h-737v-54q0 -106 63.5 -171.5t169.5 -65.5q83 0 140.5 35t67.5 89h286q-4 -60 -34.5 -121.5t-86.5 -117.5t-153 -91.5t-218 -35.5q-248 0 -392.5 140.5t-144.5 400.5zM268 1438q0 62 40 100 t104 38q42 0 75 -17t51 -48t18 -73q0 -60 -39.5 -97.5t-104.5 -37.5t-104.5 37.5t-39.5 97.5zM414 697h441v9q0 108 -60 174.5t-159 66.5t-160.5 -66.5t-61.5 -174.5v-9zM714 1438q0 62 38.5 100t102.5 38q65 0 104.5 -37.5t39.5 -100.5q0 -40 -17.5 -71t-50 -47.5 t-76.5 -16.5q-65 0 -103 37.5t-38 97.5z" />
<glyph unicode="&#xec;" horiz-adv-x="676" d="M-42 1727h269l258 -385h-223zM185 0v1159h306v-1159h-306z" />
<glyph unicode="&#xed;" horiz-adv-x="676" d="M185 0v1159h306v-1159h-306zM246 1342l258 385h268l-304 -385h-222z" />
<glyph unicode="&#xee;" horiz-adv-x="676" d="M-42 1340l275 381h223l262 -381h-237l-133 225h-11l-146 -225h-233zM185 0v1159h306v-1159h-306z" />
<glyph unicode="&#xef;" horiz-adv-x="676" d="M-17 1438q0 62 39.5 100t104.5 38t104.5 -37.5t39.5 -100.5q0 -60 -40 -97.5t-104 -37.5q-65 0 -104.5 37.5t-39.5 97.5zM185 0v1159h306v-1159h-306zM429 1438q0 62 38.5 100t102.5 38q65 0 104.5 -37.5t39.5 -100.5q0 -40 -17.5 -71t-51 -47.5t-75.5 -16.5 q-65 0 -103 37.5t-38 97.5z" />
<glyph unicode="&#xf0;" horiz-adv-x="1298" d="M112 527v58q0 246 127 393.5t342 147.5q167 0 252 -98h14q0 2 -3 16.5t-6 27t-5 17.5q-31 112 -140 237l-302 -117l-56 146l239 94q-92 83 -233 185l302 48q98 -46 187 -127l259 102l60 -146l-196 -75q233 -275 233 -672v-227q0 -260 -144.5 -409t-392.5 -149 q-246 0 -391.5 143.5t-145.5 404.5zM416 522q0 -139 62.5 -216t172.5 -77q108 0 171 77t63 216v77q0 139 -64 213.5t-170 74.5t-170.5 -78t-64.5 -216v-71z" />
<glyph unicode="&#xf1;" horiz-adv-x="1365" d="M167 0v1159h297v-202h15q12 37 35 72t62.5 70t103 56t142.5 21q179 0 282 -103t103 -303v-770h-306v687q0 117 -55 171t-145 54q-106 0 -168.5 -72t-62.5 -197v-643h-303zM327 1299q0 129 60 217.5t169 88.5q21 0 39.5 -3.5t34 -9.5t31 -16.5t30.5 -24t31 -30.5 q4 -4 19 -21.5t22 -24t21.5 -13.5t29.5 -7q35 0 53 39.5t20 91.5h166q0 -125 -66.5 -216.5t-164.5 -91.5q-102 0 -162 77q-44 56 -90 56q-71 0 -77 -112h-166z" />
<glyph unicode="&#xf2;" horiz-adv-x="1298" d="M112 527v112q0 244 147.5 392.5t391.5 148.5q241 0 388 -146.5t147 -392.5v-114q0 -258 -144.5 -403t-390.5 -145q-250 0 -394.5 143.5t-144.5 404.5zM262 1727h271l258 -385h-223zM423 524q0 -129 57 -215t169 -86t169.5 86t57.5 215v113q0 85 -24 150.5t-76 107.5 t-127 42q-110 0 -168 -85.5t-58 -214.5v-113z" />
<glyph unicode="&#xf3;" horiz-adv-x="1298" d="M112 527v112q0 244 147.5 392.5t391.5 148.5q241 0 388 -146.5t147 -392.5v-114q0 -258 -144.5 -403t-390.5 -145q-250 0 -394.5 143.5t-144.5 404.5zM423 524q0 -129 57 -215t169 -86t169.5 86t57.5 215v113q0 85 -24 150.5t-76 107.5t-127 42q-110 0 -168 -85.5 t-58 -214.5v-113zM549 1342l259 385h270l-306 -385h-223z" />
<glyph unicode="&#xf4;" horiz-adv-x="1298" d="M112 527v112q0 244 147.5 392.5t391.5 148.5q241 0 388 -146.5t147 -392.5v-114q0 -258 -144.5 -403t-390.5 -145q-250 0 -394.5 143.5t-144.5 404.5zM264 1340l275 381h223l262 -381h-239l-131 225h-11l-146 -225h-233zM423 524q0 -129 57 -215t169 -86t169.5 86 t57.5 215v113q0 85 -24 150.5t-76 107.5t-127 42q-110 0 -168 -85.5t-58 -214.5v-113z" />
<glyph unicode="&#xf5;" horiz-adv-x="1298" d="M112 527v112q0 244 147.5 392.5t391.5 148.5q241 0 388 -146.5t147 -392.5v-114q0 -258 -144.5 -403t-390.5 -145q-250 0 -394.5 143.5t-144.5 404.5zM293 1299q0 129 60.5 217.5t168.5 88.5q52 0 89.5 -20t77.5 -64q4 -4 18.5 -21.5t21 -24t21 -13.5t30.5 -7 q35 0 53 39.5t20 91.5h167q0 -125 -66.5 -216.5t-164.5 -91.5q-103 0 -163 77q-44 56 -91 56q-69 0 -75 -112h-167zM423 524q0 -129 57 -215t169 -86t169.5 86t57.5 215v113q0 85 -24 150.5t-76 107.5t-127 42q-110 0 -168 -85.5t-58 -214.5v-113z" />
<glyph unicode="&#xf6;" horiz-adv-x="1298" d="M112 527v112q0 244 147.5 392.5t391.5 148.5q241 0 388 -146.5t147 -392.5v-114q0 -258 -144.5 -403t-390.5 -145q-250 0 -394.5 143.5t-144.5 404.5zM289 1438q0 42 18 73t50 48t74 17q31 0 58 -9.5t46 -28.5t29 -44t10 -56q0 -60 -39.5 -97.5t-103.5 -37.5 q-62 0 -102 37.5t-40 97.5zM423 524q0 -129 57 -215t169 -86t169.5 86t57.5 215v113q0 85 -24 150.5t-76 107.5t-127 42q-110 0 -168 -85.5t-58 -214.5v-113zM735 1438q0 62 38.5 100t100.5 38q65 0 105.5 -37.5t40.5 -100.5q0 -60 -39.5 -97.5t-106.5 -37.5 q-62 0 -100.5 37.5t-38.5 97.5z" />
<glyph unicode="&#xf7;" d="M148 514v233h1053v-233h-1053zM491 1082q0 77 50 125t125 48q77 0 127 -49t50 -125t-51 -123.5t-126 -47.5t-125 47.5t-50 124.5zM497 179q0 52 24 91.5t63.5 61.5t87.5 22q75 0 127 -49t52 -126q0 -75 -51 -123t-128 -48q-73 0 -124 48t-51 123z" />
<glyph unicode="&#xf8;" horiz-adv-x="1298" d="M98 31l121 146q-106 139 -107 350v112q0 244 148 392.5t391 148.5q183 0 317 -91l110 133l121 -102l-117 -144q104 -137 104 -335v-114q0 -258 -144.5 -403t-390.5 -145q-191 0 -324 90l-113 -136zM414 510q0 -56 21 -96l373 462q-58 73 -159 73q-112 0 -173.5 -88.5 t-61.5 -219.5v-131zM491 287q60 -71 158 -71q79 0 133.5 45t78.5 112.5t24 150.5v130q0 50 -21 89z" />
<glyph unicode="&#xf9;" horiz-adv-x="1363" d="M158 381v778h306v-697q0 -62 16.5 -106t47 -67t63.5 -33t75 -10q96 0 160.5 63.5t64.5 165.5v684h308v-1159h-300v194h-14q-27 -81 -114.5 -146t-225.5 -65q-181 0 -284 99t-103 299zM293 1727h271l258 -385h-223z" />
<glyph unicode="&#xfa;" horiz-adv-x="1363" d="M158 381v778h306v-697q0 -62 16.5 -106t47 -67t63.5 -33t75 -10q96 0 160.5 63.5t64.5 165.5v684h308v-1159h-300v194h-14q-27 -81 -114.5 -146t-225.5 -65q-181 0 -284 99t-103 299zM581 1342l258 385h270l-304 -385h-224z" />
<glyph unicode="&#xfb;" horiz-adv-x="1363" d="M158 381v778h306v-697q0 -62 16.5 -106t47 -67t63.5 -33t75 -10q96 0 160.5 63.5t64.5 165.5v684h308v-1159h-300v194h-14q-27 -81 -114.5 -146t-225.5 -65q-181 0 -284 99t-103 299zM296 1340l274 381h223l262 -381h-239l-131 225h-11l-145 -225h-233z" />
<glyph unicode="&#xfc;" horiz-adv-x="1363" d="M158 381v778h306v-697q0 -62 16.5 -106t47 -67t63.5 -33t75 -10q96 0 160.5 63.5t64.5 165.5v684h308v-1159h-300v194h-14q-27 -81 -114.5 -146t-225.5 -65q-181 0 -284 99t-103 299zM321 1438q0 42 17.5 73t49.5 48t74 17q33 0 59 -9.5t45 -28.5t29.5 -44t10.5 -56 q0 -60 -39.5 -97.5t-104.5 -37.5q-62 0 -101.5 37.5t-39.5 97.5zM766 1438q0 62 38.5 100t100.5 38q67 0 106.5 -37.5t39.5 -100.5q0 -60 -39.5 -97.5t-106.5 -37.5q-62 0 -100.5 37.5t-38.5 97.5z" />
<glyph unicode="&#xfd;" horiz-adv-x="1252" d="M50 1159h337l233 -893h13l237 893h327q-368 -1101 -375 -1115l-29 -77q-33 -89 -69.5 -152t-94 -117t-140.5 -81t-193 -27q-92 0 -165 15v224q33 -8 96 -8q102 0 147.5 36.5t60.5 111.5l8 33zM527 1342l258 385h268l-304 -385h-222z" />
<glyph unicode="&#xfe;" horiz-adv-x="1363" d="M167 -383v1948h301v-589h17q21 56 65.5 100t114.5 71t155 27q198 0 313.5 -136.5t115.5 -386.5v-141q0 -250 -116.5 -387.5t-316.5 -137.5q-125 0 -208.5 53.5t-118.5 140.5h-14v-562h-308zM475 508q0 -125 63.5 -198t167.5 -73q106 0 167.5 75t61.5 221v93 q0 144 -61.5 220t-170.5 76q-69 0 -120.5 -32.5t-79.5 -97t-28 -151.5v-133z" />
<glyph unicode="&#xff;" horiz-adv-x="1252" d="M50 1159h337l233 -893h13l237 893h327q-368 -1101 -375 -1115l-29 -77q-33 -89 -69.5 -152t-94 -117t-140.5 -81t-193 -27q-92 0 -165 15v224q33 -8 96 -8q102 0 147.5 36.5t60.5 111.5l8 33zM264 1438q0 42 18 73t50 48t76 17q65 0 104.5 -37.5t39.5 -100.5 q0 -60 -40 -97.5t-104 -37.5q-65 0 -104.5 37.5t-39.5 97.5zM710 1438q0 62 38.5 100t102.5 38q65 0 104.5 -37.5t39.5 -100.5q0 -40 -18 -71t-51 -47.5t-75 -16.5q-65 0 -103 37.5t-38 97.5z" />
<glyph unicode="&#x152;" horiz-adv-x="2195" d="M123 649v179q0 325 164.5 505t434.5 180q133 0 237.5 -47t160.5 -134h18v154h920v-264h-651v-350h612v-246h-612v-362h651v-264h-920v158h-18q-58 -87 -161.5 -137t-238.5 -50q-277 0 -437 184t-160 494zM454 645q0 -198 88.5 -301t235.5 -103q150 0 238.5 100t88.5 298 v204q0 196 -89.5 298t-237.5 102t-236 -106t-88 -304v-188z" />
<glyph unicode="&#x153;" horiz-adv-x="2033" d="M112 527v112q0 244 148 392.5t391 148.5q117 0 218 -42.5t155 -117.5h19q35 48 90 83t126 56t148 21q231 0 373.5 -145.5t142.5 -391.5v-131h-737v-54q0 -106 64.5 -171.5t168.5 -65.5q83 0 141.5 35t64.5 89h290q-6 -60 -36.5 -121.5t-86.5 -117.5t-152.5 -91.5 t-217.5 -35.5t-223 43t-154 111h-19q-56 -69 -158 -111.5t-217 -42.5q-250 0 -394.5 143.5t-144.5 404.5zM423 524q0 -129 57 -215t169 -86t169.5 86t57.5 215v113q0 85 -24 150.5t-76 107.5t-127 42q-110 0 -168 -85.5t-58 -214.5v-113zM1186 697h442v9q0 73 -27.5 127 t-77 84t-114.5 30q-100 0 -161.5 -66.5t-61.5 -174.5v-9z" />
<glyph unicode="&#x178;" horiz-adv-x="1323" d="M8 1486h348l304 -620h12l306 620h339l-497 -939v-547h-314v539zM312 1719q0 58 37.5 94.5t97.5 36.5q62 0 99 -36.5t37 -94.5t-36.5 -94.5t-99.5 -36.5q-40 0 -71 16.5t-47.5 47t-16.5 67.5zM739 1719q0 40 15.5 69t47 45.5t70.5 16.5q62 0 99.5 -36.5t37.5 -94.5 t-37 -94.5t-100 -36.5q-60 0 -96.5 36.5t-36.5 94.5z" />
<glyph unicode="&#x2c6;" horiz-adv-x="1088" d="M177 1326l275 381h222l263 -381h-240l-131 225h-10l-146 -225h-233z" />
<glyph unicode="&#x2dc;" horiz-adv-x="1088" d="M175 1353q0 129 60.5 217.5t168.5 88.5q33 0 62 -8.5t53 -27t51 -47.5q2 -4 18 -22t22 -24t20.5 -12.5t31.5 -6.5q35 0 53 38.5t20 90.5h166q0 -125 -66.5 -216.5t-164.5 -91.5q-102 0 -162 77q-44 56 -92 56q-69 0 -75 -112h-166z" />
<glyph unicode="&#x2000;" horiz-adv-x="946" />
<glyph unicode="&#x2001;" horiz-adv-x="1892" />
<glyph unicode="&#x2002;" horiz-adv-x="946" />
<glyph unicode="&#x2003;" horiz-adv-x="1892" />
<glyph unicode="&#x2004;" horiz-adv-x="630" />
<glyph unicode="&#x2005;" horiz-adv-x="473" />
<glyph unicode="&#x2006;" horiz-adv-x="315" />
<glyph unicode="&#x2007;" horiz-adv-x="315" />
<glyph unicode="&#x2008;" horiz-adv-x="236" />
<glyph unicode="&#x2009;" horiz-adv-x="378" />
<glyph unicode="&#x200a;" horiz-adv-x="105" />
<glyph unicode="&#x2010;" horiz-adv-x="913" d="M114 468v283h685v-283h-685z" />
<glyph unicode="&#x2011;" horiz-adv-x="913" d="M114 468v283h685v-283h-685z" />
<glyph unicode="&#x2012;" horiz-adv-x="913" d="M114 468v283h685v-283h-685z" />
<glyph unicode="&#x2013;" horiz-adv-x="1365" d="M0 468v283h1367v-283h-1367z" />
<glyph unicode="&#x2014;" horiz-adv-x="2229" d="M0 468v283h2229v-283h-2229z" />
<glyph unicode="&#x2018;" horiz-adv-x="695" d="M142 837l164 649h248l-96 -649h-316z" />
<glyph unicode="&#x2019;" horiz-adv-x="695" d="M142 837l97 649h317l-165 -649h-249z" />
<glyph unicode="&#x201a;" horiz-adv-x="695" d="M142 -535l97 647h317l-165 -647h-249z" />
<glyph unicode="&#x201c;" horiz-adv-x="1227" d="M142 837l129 649h260l-75 -649h-314zM699 837l129 649h258l-70 -649h-317z" />
<glyph unicode="&#x201d;" horiz-adv-x="1227" d="M142 837l72 649h315l-129 -649h-258zM697 837l75 649h314l-129 -649h-260z" />
<glyph unicode="&#x201e;" horiz-adv-x="1227" d="M142 -533l72 647h315l-129 -647h-258zM697 -533l75 647h314l-129 -647h-260z" />
<glyph unicode="&#x2022;" horiz-adv-x="1069" d="M177 668q0 152 105 258t254 106t254 -106t105 -258q0 -98 -48 -181t-131 -133t-181 -50q-148 0 -253 108t-105 256z" />
<glyph unicode="&#x2026;" horiz-adv-x="1923" d="M144 173q0 87 56 141t141 54t141.5 -54t56.5 -142.5t-56 -140.5t-142 -52q-85 0 -141 53.5t-56 140.5zM762 173q0 58 26 104t70.5 68.5t98.5 22.5q87 0 144.5 -54t57.5 -141q0 -89 -57 -141.5t-145 -52.5q-83 0 -139 53.5t-56 140.5zM1380 173q0 87 56 141t140 54 q87 0 143 -54t56 -142.5t-56 -140.5t-143 -52q-83 0 -139.5 53.5t-56.5 140.5z" />
<glyph unicode="&#x202f;" horiz-adv-x="378" />
<glyph unicode="&#x2039;" horiz-adv-x="919" d="M127 606v10l375 439h283l-369 -439v-6l369 -441h-294z" />
<glyph unicode="&#x203a;" horiz-adv-x="919" d="M123 169l368 441v6l-368 439h283l374 -439v-10l-364 -437h-293z" />
<glyph unicode="&#x205f;" horiz-adv-x="473" />
<glyph unicode="&#x20ac;" d="M58 502v166h125v144h-125v166h133q54 535 560 535q266 0 398.5 -153t132.5 -411h-302q0 62 -9 110t-33 91t-70 65.5t-115 22.5q-117 0 -175 -62.5t-68 -197.5h285v-166h-291v-144h291v-166h-285q6 -92 34 -148t79 -81t130 -25q131 0 179 72.5t48 203.5h302 q0 -96 -18.5 -178t-60.5 -151.5t-103 -118.5t-149.5 -77t-201.5 -28q-260 0 -396.5 133t-161.5 398h-133z" />
<glyph unicode="&#x2122;" horiz-adv-x="1991" d="M92 1303v183h691v-183h-246v-568h-204v568h-241zM959 735v751h234l206 -400h8l206 400h233v-751h-183v476h-10l-200 -399h-100l-200 399h-10v-476h-184z" />
<glyph unicode="&#x25fc;" horiz-adv-x="1155" d="M0 0v1155h1155v-1155h-1155z" />
<glyph unicode="&#xfb01;" horiz-adv-x="1573" d="M81 901v244h187v114q0 177 95 253t309 76q71 0 169 -10v-221q-46 6 -106 6q-89 0 -129 -30t-40 -101v-87h258v-244h-252v-901h-304v901h-187zM1049 1496q0 73 51 120t136 47t137.5 -47t52.5 -120q0 -75 -52 -120.5t-138 -45.5q-56 0 -98.5 21t-65.5 59t-23 86zM1084 0 v1159h306v-1159h-306z" />
<glyph unicode="&#xfb02;" horiz-adv-x="1558" d="M81 901v244h187v114q0 177 95 253t309 76q71 0 169 -10v-221q-46 6 -106 6q-89 0 -129 -30t-40 -101v-87h258v-244h-252v-901h-304v901h-187zM1078 0v1565h308v-1565h-308z" />
</font>
</defs>
</svg>
