<?xml version="1.0" standalone="no"?>
<!DOCTYPE svg PUBLIC "-//W3C//DTD SVG 20010904//EN"
 "http://www.w3.org/TR/2001/REC-SVG-20010904/DTD/svg10.dtd">
<svg version="1.0" xmlns="http://www.w3.org/2000/svg"
 width="260.000000pt" height="260.000000pt" viewBox="0 0 260.000000 260.000000"
 preserveAspectRatio="xMidYMid meet">
<metadata>
Created by potrace 1.11, written by Peter Selinger 2001-2013
</metadata>
<g transform="translate(0.000000,260.000000) scale(0.100000,-0.100000)"
fill="#000000" stroke="none">
<path d="M1212 2523 c-78 -69 -196 -189 -248 -253 -16 -19 -31 -37 -34 -40
-19 -17 -127 -171 -182 -260 -104 -168 -182 -333 -249 -530 -22 -63 -39 -117
-39 -120 -1 -3 -5 -23 -11 -45 -14 -51 -20 -75 -24 -100 -2 -11 -8 -40 -14
-65 -6 -25 -14 -63 -16 -85 -3 -22 -10 -74 -16 -115 -6 -41 -13 -160 -14 -265
-5 -231 0 -248 82 -322 58 -53 91 -68 79 -37 -20 51 -28 394 -13 559 24 273
122 604 260 878 49 97 94 177 98 177 5 0 9 4 9 10 0 12 109 168 164 235 105
129 237 258 362 357 35 27 64 56 64 63 0 16 -45 25 -121 25 -59 0 -60 -1 -137
-67z"/>
<path d="M960 2542 c-96 -24 -108 -30 -150 -72 -202 -202 -398 -504 -509 -783
-57 -143 -125 -372 -145 -487 -3 -19 -8 -46 -11 -60 -3 -14 -8 -45 -11 -70 -3
-25 -8 -58 -13 -75 -4 -16 -6 -75 -5 -130 2 -117 20 -174 89 -281 l43 -68 1
164 c0 91 3 183 5 205 23 211 40 306 81 461 111 412 321 775 620 1070 114 113
148 155 123 153 -7 0 -60 -12 -118 -27z"/>
<path d="M1594 2490 c-70 -28 -56 -125 18 -136 13 -2 61 -13 108 -25 47 -11
92 -22 100 -24 86 -20 269 -93 394 -158 55 -29 105 -54 111 -56 5 -2 -21 29
-60 68 -152 157 -350 269 -552 316 -37 8 -75 17 -83 20 -8 2 -25 0 -36 -5z"/>
<path d="M392 2221 c-210 -209 -348 -484 -380 -761 -11 -96 -5 -390 9 -390 3
0 9 21 12 48 11 82 16 116 22 144 4 15 8 39 10 55 5 33 12 68 19 91 3 9 7 28
10 42 8 43 56 191 94 285 54 138 137 294 229 433 73 112 94 152 79 152 -3 0
-49 -45 -104 -99z"/>
<path d="M1319 2250 c-34 -34 -36 -49 -9 -83 17 -22 52 -37 95 -42 91 -10 397
-95 530 -146 33 -13 62 -24 65 -24 3 0 49 -21 102 -47 131 -63 267 -143 364
-217 45 -34 84 -61 87 -61 9 0 -50 157 -73 195 -24 39 -87 93 -140 120 -138
71 -259 127 -340 158 -105 39 -130 49 -145 53 -5 1 -57 17 -115 33 -103 30
-292 75 -359 85 -28 4 -39 -1 -62 -24z"/>
<path d="M1127 2000 c-34 -27 -36 -68 -4 -98 17 -16 41 -23 87 -28 56 -5 207
-29 305 -49 165 -33 517 -161 598 -217 15 -11 27 -16 27 -11 0 4 4 4 8 -2 4
-5 32 -23 62 -39 81 -44 203 -124 304 -200 l88 -66 -5 74 c-9 118 -24 136
-215 255 -225 140 -592 295 -794 336 -16 3 -38 7 -50 10 -84 18 -128 26 -163
30 -22 3 -56 7 -75 10 -124 17 -146 16 -173 -5z"/>
<path d="M1083 1703 c-133 -90 -158 -108 -161 -115 -2 -5 -8 -8 -14 -8 -13 0
-94 -56 -118 -82 -40 -43 -10 -118 47 -118 21 0 308 185 362 234 35 32 44 62
26 97 -9 16 -19 29 -23 30 -4 0 -17 2 -29 5 -15 2 -45 -12 -90 -43z"/>
<path d="M1523 1683 c-57 -54 -130 -118 -182 -163 -61 -52 -284 -213 -321
-232 -14 -7 -40 -23 -58 -35 -18 -12 -82 -47 -141 -77 -59 -30 -114 -62 -121
-71 -18 -22 -15 -64 6 -86 34 -34 63 -29 174 29 117 60 303 172 308 184 2 4 8
8 13 8 6 0 15 5 22 10 7 6 48 37 92 71 182 138 335 282 335 316 0 11 -9 32
-21 47 -27 35 -68 34 -106 -1z"/>
<path d="M1856 1578 c-11 -6 -58 -50 -105 -98 -75 -75 -205 -193 -282 -255
-68 -54 -149 -115 -189 -141 -25 -16 -47 -31 -50 -35 -11 -12 -228 -139 -285
-166 -33 -15 -63 -32 -67 -38 -4 -5 -8 -7 -8 -3 0 8 -201 -80 -218 -96 -19
-19 -21 -47 -6 -78 22 -43 58 -44 159 -3 270 109 519 260 779 474 121 99 364
330 367 348 7 40 3 56 -17 78 -25 27 -48 31 -78 13z"/>
<path d="M2134 1437 c-12 -7 -34 -28 -50 -47 -127 -152 -341 -357 -504 -482
-60 -46 -246 -170 -290 -194 -19 -10 -37 -21 -40 -24 -3 -3 -55 -31 -116 -62
-120 -62 -290 -134 -396 -168 -73 -23 -87 -35 -94 -78 -4 -21 2 -35 21 -54 30
-31 49 -28 197 26 367 134 731 357 1022 626 157 145 332 336 347 378 10 27
-10 68 -37 81 -30 13 -34 13 -60 -2z"/>
<path d="M2368 1268 c-13 -13 -47 -54 -76 -93 -171 -224 -432 -469 -674 -631
-40 -27 -74 -52 -76 -56 -2 -5 -7 -8 -12 -8 -4 0 -39 -19 -76 -42 -146 -88
-351 -181 -553 -249 -113 -38 -141 -52 -141 -72 0 -6 3 -8 6 -5 3 4 22 -1 42
-9 20 -8 73 -17 117 -19 71 -3 92 0 179 31 180 63 449 207 645 347 166 119
372 303 531 477 25 27 144 174 172 212 38 51 40 87 8 119 -26 26 -63 25 -92
-2z"/>
<path d="M2416 851 c-240 -298 -562 -562 -901 -736 -151 -78 -156 -82 -133
-99 38 -28 254 27 413 105 124 60 362 245 502 389 51 52 153 190 153 206 0 4
6 15 14 23 21 25 88 201 82 217 -12 31 -38 9 -130 -105z"/>
</g>
</svg>
